<?xml version="1.0" encoding="UTF-8" standalone="no"?>
<svg
   xmlns:dc="http://purl.org/dc/elements/1.1/"
   xmlns:cc="http://creativecommons.org/ns#"
   xmlns:rdf="http://www.w3.org/1999/02/22-rdf-syntax-ns#"
   xmlns:svg="http://www.w3.org/2000/svg"
   xmlns="http://www.w3.org/2000/svg"
   xmlns:sodipodi="http://sodipodi.sourceforge.net/DTD/sodipodi-0.dtd"
   xmlns:inkscape="http://www.inkscape.org/namespaces/inkscape"
   fill="#ffffff"
   height="24"
   viewBox="0 0 24 24"
   width="24"
   version="1.1"
   id="svg897"
   sodipodi:docname="emblem.svg"
   inkscape:version="0.92.4 (f8dce91, 2019-08-02)">
  <metadata
     id="metadata903">
    <rdf:RDF>
      <cc:Work
         rdf:about="">
        <dc:format>image/svg+xml</dc:format>
        <dc:type
           rdf:resource="http://purl.org/dc/dcmitype/StillImage" />
      </cc:Work>
    </rdf:RDF>
  </metadata>
  <defs
     id="defs901" />
  <sodipodi:namedview
     pagecolor="#ffffff"
     bordercolor="#666666"
     borderopacity="1"
     objecttolerance="10"
     gridtolerance="10"
     guidetolerance="10"
     inkscape:pageopacity="0"
     inkscape:pageshadow="2"
     inkscape:window-width="1366"
     inkscape:window-height="685"
     id="namedview899"
     showgrid="false"
     inkscape:zoom="18.704644"
     inkscape:cx="14.406614"
     inkscape:cy="12.645806"
     inkscape:window-x="0"
     inkscape:window-y="0"
     inkscape:window-maximized="1"
     inkscape:current-layer="svg897" />
  <path
     d="M0 0h24v24H0z"
     fill="none"
     id="path895" />
  <path
     style="fill:#ffffff;stroke-width:0.40245512"
     d="m 12.947368,3.0005913 c -0.13197,10e-4 -0.2533,0.0472 -0.3753,0.13894 -0.32776,0.24639 -0.68622,0.87876 -0.84997,1.49952 -0.10299,0.39042 -0.11293,0.47155 -0.11183,0.91053 0.001,0.45503 0.0188,0.55935 0.13643,0.80772 0.17534,0.37011 0.57444,0.54121 1.03673,0.44449 0.23546,-0.0493 0.51994,-0.22755 0.68866,-0.43162 0.11082,-0.13402 0.24471,-0.36072 0.31126,-0.52702 0.0609,-0.15207 0.14868,-0.45715 0.14868,-0.5166 0,-0.0161 0.0245,-0.0626 0.0545,-0.10336 0.0962,-0.13075 0.0814,-0.31987 -0.0306,-0.39327 -0.0933,-0.0611 -0.72909,-0.0189 -1.06961,0.0711 -0.26928,0.0712 -0.48266,0.18521 -0.53465,0.28575 -0.0526,0.10174 -0.0199,0.27691 0.0624,0.3346 0.0626,0.0439 0.13653,0.0339 0.29363,-0.0398 0.0797,-0.0374 0.21111,-0.0871 0.29193,-0.11053 0.15908,-0.0461 0.47573,-0.0939 0.49491,-0.0748 0.019,0.019 -0.0422,0.25063 -0.10364,0.39186 -0.10791,0.24821 -0.28462,0.46334 -0.45822,0.55782 -0.23209,0.12632 -0.55961,0.13046 -0.73641,0.009 -0.15268,-0.10462 -0.20756,-0.30062 -0.2049,-0.73168 0.004,-0.61755 0.15992,-1.11451 0.52117,-1.65926 0.29853,-0.45018 0.46108,-0.48561 0.90228,-0.19662 0.0718,0.047 0.14334,0.0855 0.15896,0.0855 0.12489,0 0.22444,-0.16623 0.1857,-0.31009 -0.0363,-0.13493 -0.26299,-0.29577 -0.56068,-0.39787 -0.0893,-0.0306 -0.17229,-0.0457 -0.25148,-0.0448 z m -7.9373897,0.005 c -0.0204,-2e-5 -0.0429,9e-5 -0.0679,3.5e-4 -0.17582,10e-4 -0.25793,0.0106 -0.3785,0.0424 -0.22931,0.0603 -0.21987,0.0374 -0.23829,0.57962 -0.008,0.24496 -0.0304,0.76794 -0.0491,1.16217 -0.0187,0.39422 -0.0339,0.95221 -0.0338,1.23995 1.7e-4,0.58344 0.003,0.60146 0.1245,0.70337 l 0.0567,0.0478 0.23332,-0.01 c 0.12832,-0.005 0.30325,-0.0224 0.38875,-0.0376 0.21867,-0.039 0.37419,-0.0871 0.54308,-0.16795 0.1959,-0.0938 0.44922,-0.33992 0.53823,-0.52294 0.0547,-0.11254 0.0586,-0.13205 0.0586,-0.29364 0,-0.1565 -0.005,-0.18249 -0.0498,-0.27133 -0.0747,-0.14753 -0.23257,-0.29457 -0.47122,-0.43902 -0.0292,-0.0177 -0.0266,-0.0245 0.034,-0.0916 0.22119,-0.24483 0.31692,-0.53515 0.30172,-0.91496 -0.009,-0.22153 -0.0401,-0.33465 -0.13833,-0.50073 -0.11564,-0.19552 -0.36074,-0.39913 -0.58288,-0.48422 -0.0879,-0.0337 -0.12654,-0.0413 -0.26914,-0.0415 z m 1.8446,0.0603 c -0.01,-3.4e-4 -0.0208,8.1e-4 -0.0339,0.003 -0.0334,0.005 -0.0764,0.0238 -0.0955,0.0408 -0.0751,0.0668 -0.0818,0.11687 -0.0823,0.61334 -6.5e-4,0.59469 -0.0241,1.43745 -0.0616,2.21569 -0.0272,0.5638 -0.0272,0.61118 -4.9e-4,0.7032 0.035,0.12052 0.084,0.17998 0.17487,0.21211 0.0828,0.0293 0.29196,0.0327 0.49271,0.008 0.5059798,-0.0624 1.0284998,-0.21982 1.1499198,-0.34655 0.0689,-0.072 0.0792,-0.22281 0.0209,-0.30855 -0.0224,-0.033 -0.0614,-0.0716 -0.0867,-0.0858 -0.0432,-0.0242 -0.0637,-0.0198 -0.34508,0.0737 -0.37142,0.12354 -0.62706,0.18209 -0.8556998,0.19601 -0.15155,0.009 -0.17805,0.007 -0.18705,-0.0166 -0.006,-0.015 0.002,-0.21244 0.0166,-0.4387 0.0393,-0.59674 0.0654,-1.57226 0.059,-2.20469 l -0.006,-0.54972 -0.0666,-0.0611 c -0.0431,-0.0395 -0.0638,-0.0533 -0.0935,-0.0542 z m 11.5495897,0.0357 c -10e-4,-1.8e-4 -0.002,-1.3e-4 -0.003,1.3e-4 -0.009,0.003 -0.16915,0.28097 -0.35655,0.61795 -0.8331,1.49804 -1.56265,2.72498 -1.85665,3.12244 -0.40895,0.55284 -0.95577,1.07789 -1.62127,1.5567 -0.0831,0.0598 -0.15113,0.11551 -0.15113,0.12382 0,0.0209 0.16644,-0.0438 0.49216,-0.19125 0.15195,-0.0688 0.61442,-0.29474 1.02769,-0.50204 0.41327,-0.2073 0.88048,-0.43859 1.03826,-0.51402 0.15777,-0.0754 0.29114,-0.14411 0.29638,-0.15259 0.005,-0.008 -0.0201,-0.0646 -0.0562,-0.12479 -0.13621,-0.22647 -0.20134,-0.53938 -0.17063,-0.81972 0.0617,-0.56318 0.4742,-1.02954 1.0285,-1.16278 0.16042,-0.0386 0.46135,-0.0379 0.61867,0.001 0.42715,0.10661 0.79874,0.43629 0.9423,0.83601 0.0217,0.0603 0.0481,0.11299 0.0588,0.1171 0.0296,0.0114 0.28246,-0.11086 0.30101,-0.14551 0.0368,-0.0688 0.0575,-0.37617 0.0377,-0.56025 -0.0443,-0.41141 -0.16151,-0.69499 -0.419,-1.01385 -0.25241,-0.31257 -1.13205,-1.17763 -1.20708,-1.18872 z m -7.37914,0.0568 c -0.037,-10e-4 -0.0745,0.0122 -0.107,0.0428 -0.0788,0.0741 -0.0911,0.1688 -0.10197,0.78952 -0.0142,0.80761 -0.0517,1.20911 -0.14961,1.60258 -0.0902,0.36235 -0.24527,0.62249 -0.42195,0.7077 -0.15462,0.0746 -0.4102296,0.0467 -0.5835996,-0.0636 -0.2167203,-0.13794 -0.3588103,-0.45448 -0.4076603,-0.90814 -0.0113,-0.10506 -0.0191,-0.52248 -0.0191,-1.02099 0,-0.86165 -0.008,-0.99313 -0.0667,-1.07253 -0.0977,-0.13252 -0.25285,-0.056 -0.29755,0.1468 -0.0277,0.12566 -0.0405,1.39381 -0.0178,1.76558 0.0545,0.89314 0.28239,1.35668 0.75448,1.53437 0.1943303,0.0731 0.4485899,0.0962 0.6328199,0.0574 0.15826,-0.0333 0.27228,-0.0998 0.41106,-0.23956 0.25884,-0.26069 0.41409,-0.68185 0.50164,-1.36086 0.0691,-0.53578 0.0869,-1.71647 0.028,-1.85564 -0.0332,-0.0785 -0.0934,-0.12295 -0.15502,-0.12537 z m -6.1529297,0.32224 c 0.0247,0 0.0513,3.5e-4 0.0786,10e-4 0.17772,0.005 0.20846,0.0109 0.29218,0.0543 0.12224,0.0634 0.25946,0.19455 0.32244,0.30822 0.0466,0.0841 0.0502,0.10371 0.0489,0.26357 -9.8e-4,0.11722 -0.0109,0.1977 -0.0307,0.25045 -0.0464,0.12318 -0.1469,0.2555 -0.25031,0.32956 -0.15942,0.11415 -0.32748,0.15044 -0.57552,0.12426 -0.0349,-0.004 -0.0705,-0.016 -0.0792,-0.0273 -0.0224,-0.0293 0.0305,-1.27736 0.0549,-1.29514 0.008,-0.006 0.0647,-0.009 0.13875,-0.009 z m 13.5074097,1.68402 c -0.66739,-0.001 -1.19954,0.52515 -1.20213,1.18926 -0.001,0.37011 0.12871,0.6656 0.40284,0.91438 0.12862,0.11673 0.36396,0.23673 0.54021,0.27547 0.17765,0.0391 0.44467,0.0258 0.62177,-0.031 0.74681,-0.23931 1.06911,-1.11754 0.65481,-1.7843 -0.21719,-0.34953 -0.60241,-0.56299 -1.0175,-0.56381 z m -3.87957,0.04 c -0.0165,0 -0.0561,0.12945 -0.0925,0.30259 -0.0444,0.21065 -0.0501,0.39705 -0.0182,0.58689 0.0325,0.19316 0.14877,0.56099 0.23924,0.75678 l 0.0595,0.12886 0.30502,0.0127 c 0.16775,0.007 0.3999,0.0183 0.51586,0.0252 0.35559,0.0211 0.32782,0.0239 0.38672,-0.0384 0.12842,-0.13573 0.55818,-0.76723 0.55818,-0.8202 0,-0.009 -0.0913,-0.0213 -0.20296,-0.027 -0.23636,-0.0122 -0.43409,-0.0472 -0.6218,-0.10991 -0.36661,-0.12252 -0.7367,-0.37686 -1.00732,-0.69232 -0.0591,-0.0689 -0.11384,-0.1252 -0.12169,-0.1252 z m -9.8513197,0.0975 0.20535,0.004 c 0.25412,0.005 0.41279,0.0433 0.62956,0.14997 0.18597,0.0915 0.33075,0.21695 0.33075,0.28643 0,0.0896 -0.18941,0.28913 -0.35367,0.37255 -0.13583,0.069 -0.26174,0.10722 -0.47277,0.14354 -0.20014,0.0344 -0.33322,0.0428 -0.3538,0.0222 -0.0152,-0.0152 -0.013,-0.82402 0.003,-0.91127 z m 14.2780397,0.17962 c 0.0274,-1.3e-4 0.0595,0.0112 0.0965,0.0338 0.0667,0.0407 0.17848,0.20702 0.22794,0.33922 0.054,0.14421 0.0471,0.22168 -0.0296,0.33334 l -0.0648,0.0943 v 0.24269 c 0,0.23357 -10e-4,0.24286 -0.0364,0.24786 -0.0235,0.003 -0.0777,-0.0286 -0.15333,-0.0907 -0.13755,-0.11275 -0.17288,-0.12162 -0.15828,-0.0397 0.0407,0.22836 0.0496,0.34647 0.0307,0.40944 -0.0318,0.1061 -0.0614,0.10577 -0.1961,-0.002 -0.0614,-0.0492 -0.11685,-0.0263 -0.15973,0.066 -0.0429,0.0923 -0.0768,0.12686 -0.12453,0.12686 -0.028,0 -0.0462,-0.014 -0.0578,-0.0443 -0.009,-0.0244 -0.0169,-0.07 -0.0169,-0.10151 0,-0.0315 -0.0104,-0.0659 -0.0232,-0.0765 -0.0391,-0.0324 -0.12585,-0.0416 -0.19103,-0.02 -0.0546,0.018 -0.0727,0.0155 -0.15346,-0.0215 -0.1131,-0.0518 -0.21137,-0.13631 -0.25361,-0.21815 -0.0176,-0.0342 -0.0675,-0.10741 -0.11073,-0.16281 -0.0876,-0.11216 -0.11665,-0.20654 -0.076,-0.24715 0.0223,-0.0223 0.0344,-0.0178 0.0998,0.0368 0.0409,0.0342 0.0868,0.0598 0.10206,0.0569 0.0418,-0.008 0.0427,-0.0951 0.003,-0.25177 -0.0445,-0.17442 -0.0444,-0.2147 4.8e-4,-0.25539 0.0489,-0.0443 0.13934,-0.0385 0.26245,0.0169 0.16969,0.0763 0.20244,0.0557 0.20244,-0.12757 0,-0.13805 0.0361,-0.21171 0.10002,-0.20428 0.0339,0.004 0.0685,0.0353 0.12964,0.11765 0.16565,0.22301 0.24442,0.27462 0.33175,0.2174 0.0616,-0.0404 0.0764,-0.0788 0.093,-0.24349 0.0159,-0.15627 0.0558,-0.23189 0.12589,-0.23225 z m 1.07618,0.56924 c -0.0138,0 -0.0825,0.0284 -0.15275,0.0631 l -0.12763,0.0632 -0.01,0.21751 c -0.0108,0.24682 -0.0383,0.36365 -0.13335,0.56726 -0.0366,0.0784 -0.0595,0.14251 -0.051,0.14251 0.009,0 0.0951,-0.0391 0.19226,-0.0869 0.21775,-0.10707 0.28025,-0.15382 0.32985,-0.2466 0.0344,-0.0644 0.0387,-0.0973 0.0386,-0.29694 -1.8e-4,-0.24279 -0.037,-0.42314 -0.0865,-0.42314 z m -0.0397,1.02898 c -0.0238,4.8e-4 -0.12423,0.0418 -0.23293,0.0963 -0.11595,0.0582 -0.26206,0.12325 -0.32471,0.14461 -0.0626,0.0214 -0.16307,0.075 -0.22316,0.11926 -0.12042,0.0887 -0.31348,0.18643 -0.42722,0.21637 -0.0404,0.0106 -0.0734,0.028 -0.0734,0.0387 0,0.0141 0.15956,0.0165 0.58857,0.009 0.52919,-0.009 0.59486,-0.0136 0.6509,-0.0427 0.0891,-0.0463 0.12976,-0.13454 0.1319,-0.28659 0.002,-0.13311 -0.0402,-0.27678 -0.0862,-0.29445 -8.1e-4,-3.4e-4 -0.002,-4.8e-4 -0.004,-4.8e-4 z m -5.17778,0.0515 c -0.11629,10e-4 -0.13098,0.0279 -0.1778,0.15307 -0.0638,0.17037 -0.0392,0.24897 0.0999,0.32073 0.0609,0.0314 0.32458,0.0839 0.42848,0.0853 l 0.09,10e-4 0.24431,-0.24346 c 0.15298,-0.15247 0.2382,-0.24957 0.22801,-0.25976 -0.0147,-0.0147 -0.32872,-0.0358 -0.81451,-0.0547 -0.0393,-10e-4 -0.0715,-0.003 -0.0984,-0.002 z m 2.57599,0.19112 c -0.0568,-1e-5 -0.12645,0.03 -0.25316,0.0902 -0.50355,0.23895 -0.58598,0.28144 -0.57632,0.29706 0.0118,0.0191 0.76778,0.0221 1.25673,0.005 v -3e-5 c 0.1785,-0.006 0.31841,-0.0164 0.3109,-0.0226 -0.008,-0.006 -0.0603,-0.0252 -0.11728,-0.0422 -0.13993,-0.0418 -0.3239,-0.13975 -0.4452,-0.23707 -0.075,-0.0602 -0.1189,-0.0903 -0.17567,-0.0903 z m -10.2165697,0.14603 c -0.0199,-6.5e-4 -0.0432,0.001 -0.0585,0.005 -0.0363,0.009 -0.0371,0.0156 -0.0335,0.2994 0.002,0.15953 0.004,0.29223 0.004,0.2949 3.4e-4,0.003 0.0959,0.003 0.2122398,0 l 0.21155,-0.005 0.005,-0.0758 0.005,-0.0758 -0.0593,0.0628 c -0.049,0.052 -0.0713,0.0629 -0.12854,0.0629 -0.1061298,0 -0.1115598,-0.0157 -0.1059698,-0.30579 0.005,-0.25526 0.005,-0.25557 -0.0349,-0.26131 -0.005,-8.1e-4 -0.0118,-0.001 -0.0184,-0.001 z m 2.3836398,0 c -0.02,-6.5e-4 -0.0433,0.001 -0.0586,0.005 -0.0357,0.009 -0.0369,0.0168 -0.0317,0.21302 0.003,0.11204 0.0127,0.23202 0.0217,0.26661 0.0289,0.111 0.15935,0.16328 0.2800003,0.11221 0.10995,-0.0465 0.12272,-0.0772 0.1328,-0.31886 0.005,-0.12042 0.0149,-0.22786 0.022,-0.23874 0.0154,-0.0237 -0.028,-0.0437 -0.0643,-0.0298 -0.0198,0.008 -0.0215,0.0176 -0.007,0.0442 0.0111,0.0207 0.0161,0.11677 0.0126,0.24162 -0.005,0.19358 -0.008,0.2095 -0.0465,0.24029 -0.0596,0.0482 -0.13062,0.0425 -0.1752603,-0.0143 -0.0346,-0.0439 -0.0368,-0.0637 -0.0321,-0.28067 0.005,-0.23244 0.005,-0.23341 -0.0349,-0.23913 -0.005,-8.1e-4 -0.0118,-0.001 -0.0184,-0.001 z m 2.0182899,0.001 c -0.0365,10e-4 -0.0596,0.0104 -0.0959,0.0308 -0.10885,0.0612 -0.15278,0.14152 -0.15278,0.27941 0,0.0908 0.008,0.12714 0.0356,0.16429 0.0502,0.0673 0.11466,0.11182 0.18159,0.1255 0.0797,0.0163 0.27362,-0.006 0.30065,-0.0348 0.0123,-0.013 0.026,-0.0646 0.0304,-0.11463 0.007,-0.0832 0.005,-0.0918 -0.0308,-0.10074 -0.0214,-0.005 -0.0572,-0.007 -0.0796,-0.004 -0.0377,0.005 -0.0402,0.0123 -0.0347,0.097 0.004,0.0548 -0.002,0.10135 -0.0151,0.11657 -0.0344,0.0414 -0.11437,0.0303 -0.17561,-0.0244 -0.0511,-0.0456 -0.0563,-0.0601 -0.0627,-0.17263 -0.009,-0.16154 0.005,-0.2304 0.0602,-0.28517 0.0337,-0.0337 0.0627,-0.0451 0.11451,-0.0451 0.0587,0 0.0797,0.0109 0.136,0.07 0.0712,0.0748 0.0916,0.0673 0.0805,-0.0297 -0.004,-0.0381 -0.0152,-0.0497 -0.0488,-0.0523 -0.0238,-0.002 -0.0948,-0.009 -0.1578,-0.0152 -0.0372,-0.004 -0.0639,-0.006 -0.0858,-0.005 z m -7.0405997,0.003 c -0.0307,-4.9e-4 -0.0529,4.8e-4 -0.0593,0.003 -0.0181,0.007 -0.0221,0.0703 -0.019,0.29794 0.002,0.15902 0.004,0.29107 0.004,0.29344 10e-4,0.0167 0.2887,-3.4e-4 0.33541,-0.0198 0.119,-0.0497 0.14616,-0.15362 0.0621,-0.23765 -0.0613,-0.0613 -0.0626,-0.0687 -0.0173,-0.0969 0.025,-0.0156 0.0345,-0.0403 0.0345,-0.0893 0,-0.10055 -0.0488,-0.13133 -0.23076,-0.14531 -0.0403,-0.003 -0.0794,-0.005 -0.11014,-0.005 z m 3.1580898,0.003 c -0.0553,0 -0.0856,0.0479 -0.0542,0.0857 0.0129,0.0155 0.0396,0.0259 0.0595,0.023 0.0274,-0.004 0.0361,-0.0176 0.0361,-0.057 0,-0.0431 -0.007,-0.0518 -0.0413,-0.0518 z m -3.0500498,0.0362 c 0.009,-1.3e-4 0.0192,0.003 0.0326,0.0103 0.0496,0.0261 0.0615,0.0478 0.0618,0.11222 3.4e-4,0.0714 -0.0859,0.13787 -0.1264,0.0974 -0.0195,-0.0195 -0.0127,-0.18762 0.008,-0.20874 0.007,-0.007 0.0147,-0.0111 0.0236,-0.0112 z m 0.89123,0.0277 c -0.0116,0.002 -0.0309,0.0219 -0.0624,0.0613 -0.0505,0.0632 -0.0516,0.0688 -0.0461,0.22885 0.007,0.1902 0.0291,0.24182 0.10578,0.24182 0.0277,0 0.0558,-0.009 0.0625,-0.0196 0.007,-0.0108 -6.5e-4,-0.0267 -0.0163,-0.0354 -0.0226,-0.0127 -0.0283,-0.044 -0.0283,-0.15478 0,-0.12441 0.004,-0.13988 0.0345,-0.14797 0.019,-0.005 0.0346,-0.0189 0.0346,-0.0309 0,-0.012 -0.0156,-0.0259 -0.0346,-0.0309 -0.0251,-0.007 -0.0345,-0.0236 -0.0345,-0.0625 0,-0.0348 -0.004,-0.0516 -0.0153,-0.0499 z m 4.9975697,0.11493 c -0.0944,9.7e-4 -0.16348,0.0859 -0.16348,0.2167 0,0.12516 0.0317,0.17152 0.14855,0.21689 9.7e-4,3.4e-4 0.0256,-0.008 0.0547,-0.0178 0.0589,-0.0206 0.093,-0.073 0.0427,-0.0656 -0.0559,0.008 -0.10485,-0.0207 -0.12281,-0.0722 -0.0135,-0.0388 -0.0123,-0.0564 0.005,-0.0725 0.0188,-0.0175 0.0181,-0.0246 -0.003,-0.0403 -0.0266,-0.0195 -0.0213,-0.0757 0.012,-0.12701 0.0133,-0.0205 0.0208,-0.0209 0.0434,-0.002 0.0322,0.0267 0.036,0.10634 0.006,0.13581 -0.0161,0.0161 -0.005,0.0207 0.0518,0.0207 0.0616,0 0.0725,-0.005 0.0725,-0.0354 0,-0.0489 -0.0447,-0.13091 -0.0785,-0.14386 -0.024,-0.009 -0.0471,-0.0135 -0.0689,-0.0132 z m -2.1994599,4.8e-4 0.009,0.16077 c 0.005,0.0884 0.0123,0.17862 0.0167,0.20041 0.008,0.0409 0.0715,0.0767 0.10206,0.058 0.01,-0.006 0.0634,-0.0108 0.11981,-0.0109 l 0.10251,-3.4e-4 -0.004,-0.19 c -0.002,-0.10449 -0.0107,-0.19641 -0.0184,-0.20428 -0.008,-0.008 -0.0355,-0.0118 -0.0618,-0.009 l -0.0478,0.006 0.004,0.15683 c 0.003,0.12569 -0.002,0.16141 -0.0241,0.17978 -0.048,0.0398 -0.0687,-0.007 -0.078,-0.17765 l -0.009,-0.15896 -0.055,-0.005 z m 4.4561099,0 0.009,0.16077 c 0.005,0.0884 0.0123,0.17862 0.0168,0.20041 0.008,0.0409 0.0715,0.0767 0.10203,0.058 0.01,-0.006 0.0634,-0.0108 0.11981,-0.0109 l 0.10254,-3.4e-4 -0.004,-0.19 c -0.002,-0.10449 -0.0107,-0.19641 -0.0184,-0.20428 -0.008,-0.008 -0.0354,-0.0118 -0.0617,-0.009 l -0.0479,0.006 0.004,0.15683 c 0.003,0.12569 -0.002,0.16141 -0.024,0.17978 -0.048,0.0398 -0.0687,-0.007 -0.078,-0.17765 l -0.009,-0.15896 -0.0551,-0.005 z m -7.6208297,0.002 c -0.0884,0 -0.1522,0.0317 -0.16481,0.082 -0.0123,0.049 0.0121,0.0792 0.0569,0.0705 0.0231,-0.004 0.0322,-0.0216 0.0326,-0.0612 6.5e-4,-0.0651 0.0107,-0.0785 0.0481,-0.0642 0.0609,0.0233 0.0554,0.1349 -0.008,0.15488 -0.0499,0.0158 -0.15343,0.11064 -0.15343,0.14047 0,0.0817 0.0604,0.11101 0.14729,0.0714 0.0351,-0.016 0.0527,-0.016 0.0783,0 0.0371,0.0232 0.0967,0.0274 0.10791,0.008 0.004,-0.007 0.002,-0.0846 -0.005,-0.17228 -0.0142,-0.18891 -0.039,-0.22927 -0.14086,-0.22927 z m 2.6962898,0 v 0.20829 0.20832 l 0.0643,-0.005 0.0643,-0.005 -0.005,-0.1468 c -0.004,-0.10769 0.002,-0.15585 0.0202,-0.18072 0.0219,-0.0295 0.0289,-0.0308 0.0543,-0.01 0.0241,0.02 0.0283,0.051 0.0241,0.18072 l -0.005,0.15653 h 0.0666 0.0667 l -0.004,-0.15543 c -0.005,-0.19156 -0.0245,-0.23986 -0.102,-0.24732 -0.0314,-0.003 -0.0666,0.002 -0.0782,0.012 -0.0132,0.0109 -0.0305,0.0115 -0.0464,0.001 -0.0139,-0.009 -0.0467,-0.0162 -0.0728,-0.0163 z m 2.3093399,0 c -0.0892,0 -0.13313,0.0386 -0.13313,0.1168 0,0.0488 0.0145,0.0729 0.0796,0.13267 0.051,0.0468 0.0773,0.0844 0.0734,0.10465 -0.009,0.049 -0.04,0.0487 -0.0989,-8.1e-4 l -0.054,-0.0454 v 0.0419 c 0,0.0594 0.0138,0.067 0.10989,0.0613 0.069,-0.004 0.0918,-0.0139 0.11948,-0.0511 0.0473,-0.0636 0.0287,-0.12262 -0.066,-0.20881 -0.0423,-0.0385 -0.077,-0.0798 -0.077,-0.0918 0,-0.0379 0.0417,-0.0389 0.0823,-0.002 0.0294,0.0267 0.044,0.0306 0.0588,0.0158 0.0341,-0.0341 -0.0162,-0.073 -0.0944,-0.073 z m 1.83796,0 -0.005,0.20011 c -0.003,0.11007 -0.002,0.20372 0.003,0.2081 0.004,0.004 0.0355,0.006 0.0691,0.003 l 0.0611,-0.005 -0.006,-0.11228 c -0.003,-0.0617 0.002,-0.13343 0.0123,-0.15931 0.0156,-0.0409 0.0265,-0.0465 0.0833,-0.0432 0.0592,0.003 0.0654,-1.7e-4 0.0654,-0.0393 0,-0.055 -0.0655,-0.0683 -0.11512,-0.0233 -0.0326,0.0295 -0.0355,0.0296 -0.0512,0.001 -0.01,-0.0176 -0.0373,-0.0299 -0.0666,-0.0299 z m 0.51338,0 c -0.0867,0 -0.12825,0.0222 -0.16126,0.086 -0.0509,0.0985 -0.0208,0.26514 0.056,0.30987 0.0166,0.01 0.0622,0.0178 0.10129,0.0181 0.054,3.5e-4 0.0819,-0.0103 0.11616,-0.0446 v 0 c 0.0811,-0.0811 0.081,-0.2215 -3.5e-4,-0.31801 -0.0346,-0.0412 -0.0569,-0.0514 -0.11192,-0.0514 z m -3.4604599,4.8e-4 c -0.0136,1.7e-4 -0.0273,0.005 -0.0334,0.0152 -0.005,0.009 -0.005,0.0284 10e-4,0.0439 0.01,0.026 0.0134,0.0259 0.0428,-8.1e-4 0.0176,-0.0159 0.0278,-0.0357 0.0228,-0.0439 -0.006,-0.01 -0.0196,-0.0146 -0.0333,-0.0145 z m -3.1975998,1.7e-4 c -0.0277,0.001 -0.0583,0.007 -0.09,0.0183 -0.0878,0.0306 -0.0956,0.15029 -0.009,0.13351 0.0231,-0.004 0.0322,-0.0216 0.0326,-0.0612 3.4e-4,-0.0303 0.005,-0.0595 0.0105,-0.0649 0.0175,-0.0175 0.065,0.0103 0.0758,0.0443 0.0169,0.0531 -0.005,0.0911 -0.0724,0.12796 -0.0349,0.019 -0.0791,0.0557 -0.0981,0.0815 -0.029,0.0394 -0.0314,0.0541 -0.0147,0.0907 0.0219,0.0481 0.0628,0.0552 0.13335,0.0231 0.0351,-0.016 0.0527,-0.016 0.0783,0 0.0371,0.0231 0.0967,0.0274 0.10795,0.008 0.004,-0.007 0.002,-0.0846 -0.005,-0.17228 -0.009,-0.11808 -0.0201,-0.16842 -0.0436,-0.19433 -0.0222,-0.0246 -0.0603,-0.0362 -0.10649,-0.0342 z m 2.9889198,8.1e-4 c -0.0604,3.5e-4 -0.0603,0.0295 -0.008,0.1118 0.0291,0.0459 0.0529,0.1034 0.0529,0.12776 0,0.0256 0.0146,0.0534 0.0346,0.0658 0.019,0.0119 0.0345,0.0358 0.0345,0.0531 0,0.0173 0.005,0.0367 0.0115,0.043 0.0168,0.0168 0.14395,0.0141 0.14395,-0.003 0,-0.008 -0.0232,-0.0565 -0.0515,-0.10794 -0.0283,-0.0514 -0.0516,-0.1139 -0.0518,-0.13892 -1.7e-4,-0.0301 -0.0115,-0.0484 -0.0334,-0.0541 -0.0182,-0.005 -0.0357,-0.0269 -0.0389,-0.0495 -0.005,-0.0324 -0.0179,-0.042 -0.0641,-0.0465 -0.0111,-0.001 -0.021,-0.002 -0.0296,-0.002 z m -1.17026,3.5e-4 c -0.006,-5e-5 -0.0128,3.4e-4 -0.0192,0.001 l -0.0467,0.006 8.1e-4,0.1943 c 4.9e-4,0.10687 9.8e-4,0.19867 0.001,0.20399 3.4e-4,0.005 0.0294,0.007 0.0645,0.004 l 0.0638,-0.005 -0.005,-0.18999 c -0.003,-0.10449 -0.0109,-0.19641 -0.0185,-0.20428 -0.006,-0.006 -0.0225,-0.01 -0.0414,-0.01 z m -1.0758498,4.8e-4 c -0.0312,-4.8e-4 -0.0586,0.008 -0.077,0.025 -0.0312,0.0282 -0.0347,0.0282 -0.0667,-8.1e-4 -0.0254,-0.023 -0.0501,-0.0279 -0.0993,-0.02 -0.0708,0.0114 -0.0719,0.0115 -0.15809,0.006 l -0.058,-0.004 -0.002,0.20296 -0.002,0.20293 h 0.0628 0.0628 l -0.002,-0.15466 c -0.002,-0.12462 0.003,-0.16039 0.027,-0.18418 0.0249,-0.0251 0.0336,-0.026 0.0574,-0.006 0.0229,0.019 0.0272,0.0521 0.0231,0.17987 l -0.005,0.15654 0.0635,0.005 0.0635,0.005 0.005,-0.16756 c 0.004,-0.13852 0.0103,-0.1709 0.0357,-0.18669 0.05,-0.0311 0.0657,0.0172 0.0612,0.18818 l -0.004,0.15544 h 0.0667 0.0666 l -0.004,-0.15544 c -0.005,-0.19192 -0.0244,-0.23985 -0.10245,-0.24734 -0.005,-4.9e-4 -0.009,-6.5e-4 -0.0136,-8.2e-4 z m 4.2206297,4.9e-4 c -0.003,-10e-6 -0.006,1.7e-4 -0.009,4.8e-4 -0.0423,0.005 -0.0425,0.006 -0.0446,0.20816 l -0.002,0.20293 h 0.0625 0.0625 l -0.002,-0.11658 c -8.1e-4,-0.0641 0.004,-0.13827 0.0114,-0.16478 0.0116,-0.0431 0.0198,-0.0477 0.0773,-0.0432 0.0553,0.004 0.065,-3.4e-4 0.0698,-0.0339 0.007,-0.0526 -0.0419,-0.0692 -0.10245,-0.0345 -0.0421,0.0241 -0.0505,0.0244 -0.069,0.002 -0.0102,-0.0122 -0.0333,-0.0207 -0.0546,-0.0207 z m 2.57256,0.001 -0.14121,6.4e-4 v 0.29979 0.29978 h 0.0654 0.0654 l -0.01,-0.0821 c -0.0123,-0.10155 0.005,-0.13198 0.0618,-0.11086 0.0639,0.0237 0.12997,-0.008 0.16335,-0.0784 0.0405,-0.0853 0.0278,-0.23228 -0.0249,-0.28834 -0.0348,-0.0371 -0.053,-0.0412 -0.1799,-0.0406 z m -0.87704,0.0237 c 0.0301,0.002 0.045,0.0612 0.045,0.17933 0,0.16428 -0.0478,0.24357 -0.0944,0.15653 -0.01,-0.0184 -0.0179,-0.091 -0.0179,-0.16141 0,-0.10277 0.006,-0.13372 0.0321,-0.15702 0.0135,-0.0122 0.0252,-0.018 0.0352,-0.0174 z m 0.92485,0.0252 c 0.0165,9.7e-4 0.0326,0.0115 0.0435,0.032 0.0287,0.0536 0.0223,0.23599 -0.009,0.26762 -0.0364,0.0364 -0.0523,0.0343 -0.0842,-0.0113 -0.0317,-0.0453 -0.0355,-0.18279 -0.007,-0.24579 0.0134,-0.0293 0.0355,-0.0438 0.0567,-0.0426 z m 1.28619,0.0539 c -0.0278,4.9e-4 -0.0471,0.0182 -0.0987,0.0753 -0.0835,0.0923 -0.17528,0.26208 -0.21641,0.40058 -0.0315,0.106 -0.013,0.11872 0.0705,0.0485 0.0275,-0.0232 0.0591,-0.0718 0.07,-0.10794 0.0266,-0.0877 0.15051,-0.27446 0.21266,-0.32041 0.0649,-0.048 0.0631,-0.0765 -0.006,-0.0917 -0.0127,-0.003 -0.023,-0.004 -0.0322,-0.004 z m -10.0819197,0.0163 c 0.0881,-0.003 0.13685,0.151 0.0658,0.22203 -0.0407,0.0407 -0.0743,0.044 -0.10241,0.0101 -0.012,-0.0144 -0.0181,-0.0658 -0.0151,-0.12521 0.005,-0.0886 0.01,-0.10143 0.043,-0.10616 0.003,-4.9e-4 0.006,-6.5e-4 0.009,-8.1e-4 z m 15.3879097,0.0182 c -0.008,-6.5e-4 -0.0169,8.1e-4 -0.027,0.003 -0.0571,0.0143 -0.0556,0.0429 0.008,0.14276 0.0678,0.10691 0.17719,0.39092 0.22178,0.57577 0.0418,0.17323 0.0717,0.4452 0.072,0.65384 6.5e-4,0.5827895 0.22217,1.5366897 0.431,1.8565897 0.15469,0.23695 0.43999,0.55559 1.04628,1.16847 0.63768,0.64463 0.72232,0.7395 0.80387,0.90106 0.0611,0.12093 0.063,0.17037 0.009,0.23276 -0.0772,0.0898 -0.16963,0.0589 -0.62423,-0.20855 -0.41904,-0.24652 -0.80206,-0.42441 -0.86323,-0.40093 -0.0116,0.004 -0.0261,0.039 -0.0321,0.0768 -0.006,0.0389 -0.0229,0.0732 -0.0384,0.0792 -0.0151,0.006 -0.22078,0.0105 -0.45712,0.0105 h -0.42971 l -0.019,-0.0734 c -0.0669,-0.25904 -0.0533,-0.24614 -0.21191,-0.20143 -0.10387,0.0293 -0.13393,0.013 -0.16455,-0.0894 -0.0732,-0.24482 -0.0873,-0.25891 -0.28262,-0.28242 -0.12474,-0.015 -0.14711,-0.0395 -0.11974,-0.1308 0.0237,-0.079 0.0371,-0.0878 0.22594,-0.14742 0.14593,-0.0461 0.16696,-0.0654 0.1491,-0.13649 -0.0114,-0.0455 -0.18418,-0.24138 -0.23858,-0.27049 -0.0437,-0.0234 -0.0786,0.006 -0.12085,0.10128 -0.0179,0.0404 -0.0407,0.0734 -0.0507,0.0734 -0.01,0 -0.0426,-0.0168 -0.0726,-0.0373 -0.17234,-0.11783 -0.26993,-0.26839 -0.27024,-0.41697 -1.7e-4,-0.096 0.0267,-0.15539 0.1031,-0.22801 0.0506,-0.048 0.0639,-0.0518 0.18291,-0.0518 0.0882,0 0.12835,-0.006 0.12835,-0.0207 -10e-6,-0.0629 -0.45108,-0.51502 -0.49912,-0.50031 -0.0152,0.005 -0.0743,0.0263 -0.13129,0.0481 -0.13119,0.0502 -0.38754,0.0582 -0.43229,0.0135 -0.0253,-0.0253 -0.0178,-0.0286 0.0901,-0.0386 0.58964,-0.055 0.96289,-0.43162 0.96154,-0.9700497 -10e-4,-0.50154 -0.23269,-0.81059 -0.70647,-0.94343 -0.34926,-0.0979 -0.74759,0.0124 -0.99623,0.27598 -0.19238,0.20393 -0.26577,0.40952 -0.25061,0.70201 0.0145,0.2799095 0.10665,0.4949197 0.29121,0.6794797 0.12859,0.12859 0.27795,0.20607 0.48577,0.252 0.0311,0.007 0.0475,0.0216 0.0475,0.0428 0,0.0719 -0.0943,0.35022 -0.1889,0.55753 -0.22442,0.49183 -0.45445,0.75671 -0.65714,0.75671 -0.0944,0 -0.15889,-0.0308 -0.34788,-0.16616 -0.29443,-0.21089 -0.50615,-0.44701 -0.67039,-0.74766 l -0.0622,-0.11383 -0.13097,-0.0119 c -0.22637,-0.0206 -0.38945,-0.0972 -0.54111,-0.2542 -0.0376,-0.0389 -0.0811,-0.0707 -0.0968,-0.0707 -0.0308,0 -0.22543,0.21777 -0.43511,0.4868 -0.42096,0.54012 -0.65134,1.00974 -0.84994,1.73261 l -0.057,0.20725 h -0.29987 -0.29988 l -0.0352,-0.0678 c -0.0194,-0.0373 -0.0441,-0.0708 -0.055,-0.0744 -0.0109,-0.004 -0.20594,0.0987 -0.43349,0.22737 -0.53135,0.30047 -0.69018,0.37659 -0.80594,0.38619 -0.0765,0.006 -0.0961,0.002 -0.1256,-0.03 -0.0746,-0.08 -0.0611,-0.24716 0.0334,-0.41545 0.12185,-0.21696 0.31449,-0.42906 0.77191,-0.84988 0.66943,-0.61587 0.89984,-0.88276 1.14675,-1.32837 0.15137,-0.27317 0.21544,-0.59883 0.26293,-1.3365497 0.0153,-0.23749 0.0341,-0.49011 0.0419,-0.56135 0.0157,-0.14433 0.005,-0.1707 -0.0566,-0.14251 -0.0524,0.0239 -0.0538,0.033 -0.098,0.67793 -0.0599,0.8729697 -0.1,1.0538097 -0.31398,1.4170497 -0.21082,0.35782 -0.27751,0.43113 -1.30377,1.43279 -0.3944,0.38495 -0.55125,0.57974 -0.6089,0.75613 -0.0133,0.0406 -0.0325,0.0711 -0.0428,0.0678 -0.0251,-0.008 -0.0989,-0.29335 -0.18201,-0.70301 -0.17784,-0.87702 -0.25974,-1.70803 -0.25979,-2.6361502 0,-0.4088895 -0.004,-0.4891895 -0.0257,-0.5071395 -0.0427,-0.0354 -0.0762,-0.007 -0.135,0.11606 -0.0308,0.0643 -0.0636,0.12082 -0.0729,0.12557 -0.0105,0.005 -0.0201,-0.10843 -0.0255,-0.30224 l -0.009,-0.3109 -0.0492,0.0935 c -0.0649,0.12331 -0.12357,0.36076 -0.14971,0.60606 -0.0117,0.1092395 -0.0262,0.2041995 -0.0324,0.2110395 -0.006,0.007 -0.17816,-0.0321 -0.38222,-0.0866 l -0.371,-0.0991 0.002,-0.060199 c 10e-4,-0.0331 0.0504,-0.17484 0.1092,-0.31498 0.0588,-0.14013 0.10432,-0.2684 0.10113,-0.285 -0.004,-0.0189 -0.0216,-0.0302 -0.0478,-0.0302 -0.0462,0 -0.0817,0.0533 -0.27841,0.41882 -0.0575,0.10687 -0.11378,0.1952 -0.12501,0.1963 -0.04,0.004 -0.0897,-0.005 -0.1041996,-0.019 -0.022,-0.0211 0.0702,-0.39861 0.1471896,-0.60257 0.0647,-0.17131 0.0747,-0.21894 0.036,-0.17099 -0.0437,0.0542 -0.2981096,0.54335 -0.4365696,0.83931 -0.2655603,0.5676992 -0.4629503,1.1031092 -0.5698203,1.5456192 -0.1166,0.48286 -0.20205,1.16591 -0.25959,2.07493 -0.0164,0.25898 -0.0256,0.3146 -0.0801,0.4836 -0.12222,0.37918 -0.26743,0.63715 -0.55947,0.99407 -0.29056,0.3551 -0.51823,0.57307 -0.91422,0.87522 -0.2377198,0.18139 -0.7403098,0.53289 -0.8023498,0.56116 -0.0468,0.0213 -0.0516,0.019 -0.11719,-0.055 -0.11679,-0.13192 -0.33851,-0.43522 -0.39331,-0.53801 -0.17214,-0.32286 -0.38466,-1.60487 -0.43294,-2.61171 -0.0101,-0.21007 -0.0236,-0.49075 -0.0301,-0.62375 l -0.0118,-0.24178 h -0.0432 c -0.0403,0 -0.0463,0.0119 -0.0895,0.17874 -0.0732,0.28245 -0.0783,0.27477 -0.0938,-0.14059 -0.007,-0.17773 -0.0183,-0.32313 -0.026,-0.32313 -0.014,0 -0.0233,0.0298 -0.0773,0.24761 -0.0161,0.0649 -0.0398,0.1221 -0.0527,0.12705 -0.0283,0.0109 -0.31442,-0.0209 -0.3302,-0.0366 -0.006,-0.006 0.002,-0.0746 0.0185,-0.15217 0.0266,-0.12662 0.0269,-0.14371 0.003,-0.16746 -0.0417,-0.0417 -0.0761,-0.006 -0.13303,0.13752 -0.0282,0.071 -0.0588,0.13821 -0.068,0.14939 -0.0175,0.0211 -0.13167,0.0124 -0.15871,-0.012 -0.008,-0.007 0.006,-0.10738 0.0314,-0.22264 0.0709,-0.32429 0.0478,-0.32212 -0.0755,0.007 -0.4226,1.12759 -0.50478,1.50594 -0.55214,2.54208 l -0.0136,0.29677 -0.1488,0.22139 c -0.57383,0.85364 -1.28602,1.4626 -2.18896,1.87165 -0.18839,0.0853 -0.27513,0.13736 -0.22898,0.13736 0.0111,0 0.12356,-0.0266 0.24983,-0.0592 0.60562,-0.1561 1.07834,-0.37921 1.47104,-0.69425 0.22043,-0.17684 0.53943,-0.50492 0.68229,-0.70172 0.10626,-0.14638 0.14024,-0.1772 0.14024,-0.12718 0,0.066 -0.3771,0.54021 -0.64682,0.81335 -0.24267,0.24573 -0.46214,0.42687 -0.73493,0.60657 -0.34248,0.22563 -0.44389,0.27317 -0.67834,0.31808 -0.11185,0.0214 -0.20751,0.0457 -0.21259,0.0539 -0.005,0.008 0.0316,0.015 0.0816,0.015 0.11979,0 0.10244,0.0147 -0.15078,0.1276 -0.16153,0.0721 -0.20693,0.0998 -0.21127,0.12896 -0.003,0.0226 0.006,0.0416 0.0235,0.0483 0.0698,0.0268 0.65793,-0.12772 1.02258,-0.26865 l 0.22391,-0.0865 0.61113,-0.0174 c 0.33613,-0.01 0.61773,-0.0108 0.62578,-0.003 0.008,0.008 0.012,0.0326 0.009,0.0546 -0.006,0.0384 -0.0203,0.042 -0.39441,0.0949 -0.7455,0.10557 -1.87064,0.31606 -1.91232,0.35774 -0.0129,0.0128 -0.0184,0.0364 -0.0122,0.0523 0.0139,0.0362 0.0572,0.0365 0.59465,0.004 0.56232,-0.0343 1.66155,-0.07 1.69996,-0.0553 0.0295,0.0113 0.0313,0.0343 0.0251,0.33434 l -0.007,0.32222 0.0691,0.036 0.0691,0.036 -0.006,0.19846 c -0.004,0.14638 3.5e-4,0.20567 0.0173,0.22601 0.0126,0.0152 0.0928,0.0454 0.17835,0.0671 0.64995,0.16537 0.89176,0.28754 1.1786,0.59545 0.0962,0.10329 0.11067,0.11282 0.14383,0.0951 0.0449,-0.024 0.0582,0.0393 -0.14309,-0.68161 -0.25945,-0.9291 -0.31987,-1.17729 -0.29309,-1.20388 0.0169,-0.0168 0.0906,-0.0215 0.29358,-0.0188 0.33065,0.004 0.83605,0.0369 0.85437,0.0549 0.007,0.007 0.0986,0.28377 0.2028,0.61447 0.10417,0.33069 0.19808,0.61171 0.20871,0.62452 0.0156,0.0188 0.094,0.0213 0.41037,0.0131 0.4165098,-0.0109 0.5577698,0.002 0.9204598,0.0823 0.27984,0.0622 0.28568,0.033 0.0492,-0.24595 -0.095,-0.11205 -0.17273,-0.21193 -0.17273,-0.22193 0,-0.01 0.0117,-0.0182 0.0259,-0.0182 0.0143,0 0.0259,-0.009 0.0259,-0.0194 0,-0.0314 -0.41098,-0.51029 -0.51195,-0.59655 -0.1494398,-0.12767 -0.1353498,-0.1387 0.14059,-0.10985 0.0855,0.009 0.40717,0.0362 0.71481,0.0606 0.30765,0.0244 0.56608,0.0485 0.57429,0.0536 0.008,0.005 0.015,0.29828 0.0152,0.65158 1.3e-4,0.35329 0.006,0.65108 0.013,0.66176 0.007,0.0107 0.038,0.0249 0.0688,0.0316 l 0.0561,0.0122 v 0.21453 c 0,0.19149 0.004,0.21822 0.0346,0.24905 0.0211,0.0211 0.0576,0.0346 0.0938,0.0346 0.13545,0 0.7297403,0.18244 1.0572299,0.32454 0.36756,0.1595 0.83073,0.47163 1.28173,0.86376 0.14517,0.12622 0.19673,0.14623 0.20625,0.08 v 0 c 0.003,-0.0194 -0.0723,-0.24089 -0.16681,-0.49207 -0.23724,-0.6303 -0.42545,-1.16111 -0.62423,-1.7607 -0.19208,-0.57938 -0.23407,-0.72156 -0.21786,-0.73777 0.006,-0.006 0.15309,-0.002 0.32626,0.01 0.54795,0.0364 1.71241,0.12468 1.74993,0.13261 0.0293,0.006 0.0645,0.0813 0.18789,0.40094 0.36552,0.94682 0.60156,1.52764 0.62439,1.5364 0.0136,0.005 0.14296,-0.003 0.28763,-0.0188 1.13716,-0.12202 1.74526,-0.0708 2.29056,0.19303 0.15974,0.0773 0.20316,0.0824 0.2219,0.0262 0.003,-0.0102 -0.0797,-0.12217 -0.18463,-0.2489 -0.10494,-0.12673 -0.1908,-0.23636 -0.1908,-0.24366 0,-0.007 0.0158,-0.0133 0.0351,-0.0133 0.0284,0 0.0319,-0.006 0.0184,-0.0302 -0.009,-0.0166 -0.25495,-0.31779 -0.54602,-0.66926 -0.29107,-0.35149 -0.53348,-0.64913 -0.53866,-0.66141 -0.005,-0.0123 -0.005,-0.0263 -4.8e-4,-0.0313 0.0109,-0.0109 0.44477,0.0633 0.72936,0.12475 0.56523,0.12201 1.00303,0.32716 1.2546,0.58789 0.19516,0.20227 0.26501,0.37441 0.25242,0.62207 -0.004,0.0871 -0.002,0.16859 0.006,0.18103 0.0204,0.033 2.71671,0.0622 2.75573,0.0298 0.0309,-0.0256 0.0238,-0.0998 -0.0307,-0.32309 -0.0334,-0.13681 -0.0337,-0.14493 -0.005,-0.16604 0.0287,-0.021 0.0282,-0.0281 -0.01,-0.13251 -0.0601,-0.16529 -0.19597,-0.43247 -0.30534,-0.60028 -0.28646,-0.43948 -0.66671,-0.77772 -1.13728,-1.01165 -0.35625,-0.17709 -0.82305,-0.31979 -1.41844,-0.43362 -0.24993,-0.0478 -0.26836,-0.0478 -0.55055,-0.001 -0.0855,0.0141 -0.41012,0.0355 -0.72141,0.0475 -1.04782,0.0403 -1.70358,-0.0299 -1.89509,-0.2029 -0.18747,-0.16936 -0.27773,-0.5476 -0.19016,-0.79676 0.019,-0.0541 0.0345,-0.10693 0.0345,-0.11748 0,-0.0105 -0.10106,-0.0907 -0.22458,-0.17807 -0.14229,-0.10066 -0.23938,-0.18246 -0.26497,-0.22323 -0.15442,-0.246 -0.57499,-1.09687 -0.76369,-1.54506 -0.0805,-0.19115 -0.26668,-0.68882 -0.26668,-0.71278 0,-0.004 0.0455,-0.003 0.10119,0.002 0.16756,0.0175 0.28039,-0.0303 0.90025,-0.38095 0.19456,-0.11008 0.35884,-0.20015 0.36505,-0.20015 0.006,0 0.024,0.0194 0.0396,0.0432 l 0.0283,0.0432 h 1.70606 c 1.76811,0 1.74748,8.1e-4 1.74751,-0.0682 0,-0.0481 0.0981,-0.23293 0.14897,-0.28058 0.0273,-0.0256 0.0885,-0.0645 0.13601,-0.0864 0.0861,-0.0396 0.0891,-0.0398 0.85495,-0.0398 0.84999,0 0.88337,0.004 1.02982,0.11141 0.0705,0.0519 0.15069,0.18399 0.16986,0.27983 0.009,0.0451 0.0121,0.046 0.1863,0.0571 0.0974,0.006 0.50745,0.009 0.91118,0.006 l 0.73405,-0.005 0.0165,-0.0561 c 0.0108,-0.0368 0.0274,-0.0561 0.0481,-0.0561 0.0456,0 0.37249,0.16652 0.70094,0.35704 0.48238,0.2798 0.572,0.30897 0.69409,0.22587 0.19017,-0.12942 0.1702,-0.29944 -0.0736,-0.6261 -0.0496,-0.0665 -0.34294,-0.37371 -0.65177,-0.68271 -0.83089,-0.83132 -1.05393,-1.09829 -1.17035,-1.40082 -0.18526,-0.48138 -0.26736,-0.9081302 -0.30686,-1.5953397 -0.0333,-0.5795 -0.0844,-0.81351 -0.25255,-1.15722 -0.0744,-0.15201 -0.0984,-0.19255 -0.13378,-0.19514 z m -14.8903497,0.0755 c 0.0148,-8.1e-4 0.0277,0.0136 0.0312,0.0434 0.006,0.0529 -0.0297,0.0898 -0.0656,0.0676 -0.019,-0.0117 -0.0208,-0.0264 -0.008,-0.0638 0.0108,-0.0306 0.0273,-0.0465 0.0421,-0.0472 z m 0.70815,0 c 0.0148,-8.1e-4 0.0277,0.0136 0.0311,0.0434 0.006,0.0529 -0.0297,0.0898 -0.0656,0.0676 -0.019,-0.0117 -0.0208,-0.0264 -0.008,-0.0638 0.0108,-0.0306 0.0273,-0.0465 0.0421,-0.0472 z m 3.0161098,0.1157 c -0.005,4.9e-4 -0.0133,0.008 -0.0281,0.0212 -0.019,0.0172 -0.0345,0.0378 -0.0345,0.0459 0,0.008 0.0155,0.0146 0.0345,0.0146 0.0259,0 0.0346,-0.0115 0.0346,-0.0458 0,-0.0252 -3.4e-4,-0.0363 -0.007,-0.0358 z m 7.4286999,0.0614 c -0.23727,-8.1e-4 -0.51141,0.16723 -0.69486,0.4259 -0.35079,0.49459 -0.39409,1.1759595 -0.11199,1.7619597 0.0954,0.19808 0.17684,0.30087 0.30104,0.37966 0.19641,0.12459 0.4003,0.16614 0.63128,0.12867 0.0617,-0.01 0.1433,-0.0322 0.18136,-0.0493 0.16801,-0.0756 0.37067,-0.29444 0.49879,-0.53862 0.12623,-0.2405602 0.20008,-0.5190002 0.0934,-0.3521202 -0.0711,0.11114 -0.14422,0.17092 -0.20916,0.17092 -0.16885,0 -0.32372,-0.27025 -0.2981,-0.5202295 0.0105,-0.10209 0.0701,-0.29842 0.0907,-0.29842 0.005,0 0.0409,0.0274 0.08,0.0608 0.0845,0.0723 0.21562,0.11565 0.30609,0.10119 0.0774,-0.0124 0.0854,-0.002 0.0985,0.12437 0.007,0.0697 0.015,0.0903 0.0289,0.0764 0.0327,-0.0327 0.0238,-0.47076 -0.0127,-0.62724 -0.11949,-0.51179 -0.50452,-0.84226 -0.98327,-0.8439 z m 1.24681,1.17659 0.0777,0.0593 c 0.0957,0.0731 0.17866,0.10168 0.27292,0.0941 0.0715,-0.006 0.0723,-0.005 0.0874,0.0633 0.052,0.2366995 -0.0921,0.5440595 -0.25517,0.5440595 -0.0367,0 -0.0769,-0.016 -0.11007,-0.044 -0.0703,-0.0592 -0.14029,-0.2074 -0.15214,-0.32225 -0.0102,-0.098599 0.0114,-0.2317395 0.0541,-0.3339495 z m -6.128,0.4153895 c 0.008,0 0.0152,0.0913 0.0153,0.20292 3.5e-4,0.6162002 0.0762,1.4462202 0.20002,2.1872802 0.0331,0.19842 0.0573,0.36942 0.0537,0.37998 -0.004,0.0106 -0.0307,-0.0818 -0.0603,-0.20531 -0.13466,-0.56245 -0.24415,-1.2969 -0.28976,-1.94381 -0.0154,-0.21804 0.0372,-0.6210602 0.081,-0.6210602 z m -1.5229296,0.12281 c 0.006,-3.4e-4 0.0127,0.003 0.0196,0.01 0.0134,0.0134 0.008,0.0389 -0.0176,0.0898 -0.02,0.0391 -0.041,0.0711 -0.0468,0.0711 -0.006,0 -0.005,-0.033 0.001,-0.0734 0.0101,-0.0634 0.0251,-0.0965 0.0435,-0.0974 z m 0.1817496,0.0508 c 0.009,-1.3e-4 0.0107,0.0217 0.005,0.0648 -0.007,0.0525 -0.002,0.0764 0.019,0.0945 0.0156,0.0133 0.19945,0.0686 0.40844,0.1230502 0.53044,0.13807 0.49223,0.12314 0.49223,0.19206 0,0.0319 -0.007,0.0624 -0.0156,0.0677 -0.009,0.005 -0.22366,-0.0411 -0.47801,-0.10307 -0.30929,-0.0753 -0.46817,-0.10689 -0.47975,-0.0953 -0.01,0.01 -0.0389,0.13214 -0.0651,0.27246 -0.0443,0.23654 -0.0714,0.45071 -0.12408,0.98056 -0.0201,0.20252 -0.0216,0.20732 -0.0637,0.21078 -0.0238,0.002 -0.0607,-0.005 -0.0821,-0.0156 -0.0503,-0.0248 -0.05,-0.0382 0.0114,-0.65439 l 0.0493,-0.49372 0.14451,-0.31682 c 0.10048,-0.2202702 0.15824,-0.3267902 0.17852,-0.3270302 z m 0.15786,0.0447 c 0.0479,-6.5e-4 0.17008,0.0246 0.39661,0.0794 0.32792,0.0794 0.37876,0.0961 0.37876,0.1244302 0,0.018 -0.008,0.0347 -0.0173,0.0371 -0.01,0.002 -0.18209,-0.0397 -0.38351,-0.0936 -0.20142,-0.0539 -0.37564,-0.1073702 -0.38716,-0.1189302 -0.0182,-0.0182 -0.0162,-0.028 0.0126,-0.0284 z m -0.11457,0.4296802 c 0.0119,-0.007 0.54616,0.11455 0.79925,0.18233 l 0.0648,0.0174 1.3e-4,0.36634 c 8e-5,0.22114 0.0139,0.52699 0.035,0.77159 0.0335,0.38888 0.0341,0.45213 0.004,0.44778 -0.007,-10e-4 -0.24959,-0.086 -0.53813,-0.18871 -0.28855,-0.10269 -0.5320496,-0.19415 -0.5411096,-0.20321 -0.0402,-0.0402 0.1267096,-1.36315 0.1757996,-1.39348 z m -0.4374696,1.83534 c 0.002,9e-5 0.004,3.5e-4 0.006,8.1e-4 0.0141,0.003 0.3609896,0.22319 0.7708996,0.48907 l 0.7453,0.4834 0.0111,0.0723 c 0.006,0.0397 0.0157,0.0975 0.0212,0.12841 0.007,0.0409 0.004,0.056 -0.0134,0.0556 -0.0129,-3.4e-4 -0.32164,-0.19414 -0.68604,-0.43084 -0.43988,-0.28573 -0.6807496,-0.43212 -0.7167196,-0.43562 -0.0516,-0.005 -0.0564,-0.0121 -0.10118,-0.15094 -0.0555,-0.17206 -0.0636,-0.21375 -0.037,-0.21224 z m -5.1760901,0.0902 c 0.0277,0 0.0546,0.007 0.0597,0.0149 0.0104,0.0169 -0.13882,0.45123 -0.16372,0.47649 -0.0101,0.0102 -0.0161,-0.006 -0.0161,-0.0432 4e-5,-0.0528 0.0375,-0.30396 0.061,-0.40934 0.007,-0.0294 0.0209,-0.0389 0.0592,-0.0389 z m 0.29361,0.0345 c 0.0853,0 0.32192,0.0414 0.33291,0.0583 0.0155,0.0238 0.017,0.10168 0.003,0.13892 -0.0115,0.03 -0.0913,0.033 -0.2715,0.01 -0.0553,-0.007 -0.10821,-0.0205 -0.11748,-0.0298 -0.0276,-0.0276 0.0174,-0.17741 0.0533,-0.17741 z m -0.17881,0.28339 c 0.002,-1.3e-4 0.005,3.4e-4 0.007,10e-4 0.007,0.004 0.11708,0.0206 0.24418,0.0359 0.21872,0.0263 0.27879,0.0432 0.25135,0.0707 -0.007,0.007 -0.12137,-0.002 -0.25504,-0.019 -0.1373,-0.0175 -0.24948,-0.0245 -0.25785,-0.016 -0.0196,0.0199 -0.0834,0.39776 -0.0993,0.5886 -0.0137,0.16386 -0.0262,0.17997 -0.10746,0.1384 -0.0237,-0.0121 -0.0456,-0.0354 -0.0488,-0.0519 -0.006,-0.0332 0.21294,-0.69825 0.24168,-0.73288 0.007,-0.009 0.0172,-0.0148 0.0247,-0.0152 z m 0.80672,0.0676 c 0.003,-3.5e-4 0.006,1.3e-4 0.007,0.001 0.005,0.005 0.0161,0.12841 0.0238,0.2734 0.0281,0.53124 0.0824,1.02679 0.1724,1.57448 0.0279,0.17001 0.0475,0.31244 0.0434,0.3165 -0.004,0.004 -0.0206,-0.0379 -0.0369,-0.0932 -0.044,-0.15008 -0.14067,-0.64431 -0.1916,-0.97942 -0.0315,-0.20722 -0.0476,-0.39626 -0.0538,-0.63199 -0.007,-0.2474 -0.0153,-0.34613 -0.0332,-0.37336 -0.0221,-0.0338 -0.0203,-0.0397 0.0209,-0.0666 0.0186,-0.0122 0.0372,-0.0202 0.0476,-0.0212 z m 12.9602797,0.0486 c -0.0831,1.7e-4 -0.17734,6.5e-4 -0.28436,10e-4 l -0.76088,0.005 -0.0739,0.052 c -0.10577,0.0744 -0.15741,0.18383 -0.1673,0.35471 -0.007,0.12135 -0.003,0.14695 0.0369,0.2284 0.0493,0.10076 0.11453,0.15762 0.23477,0.20467 0.0712,0.0279 0.15012,0.0309 0.8129,0.0316 0.46149,4.9e-4 0.75827,-0.006 0.79928,-0.0174 0.15964,-0.0443 0.23709,-0.18479 0.23691,-0.42958 -1.7e-4,-0.17743 -0.022,-0.24502 -0.10316,-0.3183 -0.10898,-0.0985 -0.14923,-0.11367 -0.73117,-0.11228 z m -8.4231596,0.0494 c 0.0215,0 1.2383196,0.78534 1.2836596,0.82851 0.02,0.019 0.0465,0.10066 0.0723,0.22239 0.0601,0.28397 0.29005,1.08155 0.61408,2.13018 0.0754,0.24392 0.13704,0.45185 0.13704,0.46203 0,0.0363 -0.0342,0.0169 -0.18453,-0.10448 -0.20816,-0.16813 -0.4522,-0.40967 -0.58718,-0.5811 -0.38291,-0.48632 -0.86318,-1.48794 -1.22764,-2.56028 -0.1206096,-0.35488 -0.1321096,-0.39725 -0.1077196,-0.39725 z m -5.2070901,0.0286 c 0.0316,6.4e-4 0.0794,0.006 0.15184,0.0152 0.10276,0.0136 0.19314,0.0286 0.20086,0.0334 0.008,0.005 0.0195,0.10791 0.0261,0.22917 0.007,0.12127 0.0234,0.30919 0.0373,0.41762 0.0139,0.10843 0.0191,0.20316 0.0116,0.21049 -0.007,0.007 -0.13024,-0.0348 -0.27282,-0.0935 -0.14259,-0.0588 -0.26987,-0.11375 -0.28285,-0.12217 -0.0182,-0.0118 -0.0211,-0.0452 -0.0125,-0.14681 0.0186,-0.22129 0.0653,-0.51032 0.086,-0.53215 0.008,-0.008 0.023,-0.0118 0.0545,-0.0112 z m 16.2655597,0.37404 c -0.13945,-9.8e-4 -0.45249,0.002 -0.80844,0.007 l -0.86291,0.0134 -0.0214,0.10834 c -0.0281,0.14215 -0.0739,0.22851 -0.16006,0.3023 -0.12188,0.10432 -0.15106,0.10752 -0.98003,0.10752 -0.48676,0 -0.74686,0.006 -0.74659,0.0173 3.4e-4,0.01 0.12967,0.11055 0.28769,0.22455 0.40196,0.28998 0.53052,0.39631 0.70307,0.58139 0.18395,0.1973 0.33538,0.40706 0.48852,0.6767 l 0.11615,0.20451 0.15634,-0.0145 c 0.27095,-0.0252 0.74133,-0.012 0.90769,0.0254 0.0807,0.0182 0.15646,0.0341 0.16827,0.0354 0.0118,10e-4 0.0653,-0.0569 0.11896,-0.12944 0.14551,-0.19676 0.31901,-0.47654 0.41804,-0.67408 0.13831,-0.27589 0.21557,-0.57868 0.28776,-1.12745 0.0322,-0.24443 0.0332,-0.34485 0.004,-0.35617 -0.003,-10e-4 -0.0303,-0.002 -0.0767,-0.002 z m -4.14204,0.0132 c -0.0605,-10e-4 -0.13536,0.01 -0.13969,0.0246 -0.005,0.0171 0.22908,0.19862 0.25607,0.19862 0.008,0 0.014,-0.007 0.014,-0.016 0,-0.009 -0.009,-0.0556 -0.0203,-0.10407 -0.0154,-0.0665 -0.0295,-0.0904 -0.0575,-0.0974 -0.0138,-0.003 -0.0323,-0.005 -0.0525,-0.006 z m -2.41276,0.003 c -0.52879,8.1e-4 -0.89899,0.005 -0.90888,0.0114 -0.0657,0.0422 -0.0702,0.83447 -0.006,1.07288 0.0391,0.14527 0.20265,0.47221 0.34245,0.68446 0.0978,0.1485 0.25326,0.34459 0.40847,0.51534 l 0.0937,0.10307 0.17974,-0.0559 c 0.23455,-0.073 0.37774,-0.10212 0.62019,-0.12634 0.54874,-0.0548 1.14358,0.0622 1.45083,0.28539 0.0536,0.0389 0.0752,0.0435 0.18999,0.0401 l 0.12954,-0.004 -0.009,-0.11224 c -0.005,-0.0618 -0.009,-0.24827 -0.008,-0.41452 3.4e-4,-0.40587 0.0178,-0.46603 0.18204,-0.62519 0.0945,-0.0915 0.16168,-0.13667 0.32261,-0.21661 0.11181,-0.0555 0.23708,-0.11394 0.27838,-0.12976 0.0455,-0.0174 0.0722,-0.0376 0.0679,-0.0511 -0.004,-0.0123 -0.29811,-0.23604 -0.65368,-0.49727 l -0.64651,-0.475 -1.45946,-0.004 c -0.20403,-6.5e-4 -0.39789,-6.5e-4 -0.57415,-4.8e-4 z m -4.8334199,0.42111 c 0.0109,0.002 0.0398,0.0591 0.0668,0.13235 0.0492,0.13365 0.053,0.16186 0.0632,0.47035 0.0207,0.62359 0.0918,1.32293 0.19821,1.95169 0.0273,0.1615 0.0471,0.29642 0.0439,0.29982 -0.003,0.003 -0.0178,-0.0355 -0.0325,-0.0864 -0.13237,-0.45899 -0.27378,-1.402 -0.3194703,-2.1306 -0.0369,-0.58794 -0.0382,-0.62694 -0.0221,-0.63694 4.9e-4,-3.4e-4 10e-4,-4.8e-4 0.002,-3.4e-4 z m -5.1882798,0.2333 c 10e-4,1.3e-4 0.003,4.9e-4 0.004,10e-4 0.22937,0.10731 0.3728,0.19244 0.52391,0.31103 0.31231,0.24508 0.3088,0.24149 0.33606,0.34391 0.0436,0.16374 0.0285,0.17309 -0.10432,0.0645 -0.2475,-0.20232 -0.5664,-0.37695 -0.62808,-0.34394 -0.0427,0.0228 -0.04,0.0276 -0.0952,-0.16607 -0.0434,-0.15217 -0.054,-0.21257 -0.0363,-0.21068 z m 13.4954397,0.42984 c -0.0555,0 -0.40272,0.14571 -0.53629,0.22507 -0.16026,0.0952 -0.25431,0.18145 -0.29309,0.26881 -0.0415,0.0934 -0.0725,0.38107 -0.0575,0.53326 0.007,0.0668 0.0154,0.12726 0.0197,0.13438 0.004,0.007 0.41527,0.0129 0.91344,0.0129 0.84497,0 0.90574,-0.002 0.90574,-0.0297 0,-0.043 -0.19186,-0.3709 -0.30909,-0.52821 -0.21306,-0.28591 -0.55787,-0.61657 -0.64292,-0.61657 z m -13.2082997,0.12311 c 0.0445,0.004 0.17667,0.0868 0.36017,0.22655 0.10925,0.0832 0.2205,0.16942 0.24722,0.19161 0.0447,0.0371 0.0609,0.0906 0.2026,0.666 0.0847,0.34411 0.17814,0.7068 0.20761,0.80594 0.0295,0.0992 0.0508,0.1887 0.0474,0.19902 -0.003,0.0103 -0.058,-0.0344 -0.1212,-0.0993 -0.31139,-0.31989 -0.52705,-0.68001 -0.72085,-1.20378 -0.11607,-0.31369 -0.25288,-0.76657 -0.23652,-0.78293 0.003,-0.003 0.007,-0.004 0.0136,-0.003 z m 5.1732801,0.0227 c 10e-4,-4.9e-4 0.003,1.3e-4 0.005,0.002 0.009,0.009 0.0562,0.11356 0.10471,0.23228 0.1229996,0.30076 0.3691596,0.79666 0.5236196,1.05484 0.18801,0.31428 0.4508,0.66001 0.7753,1.02003 0.0739,0.082 0.13439,0.15389 0.13439,0.15976 0,0.0136 -0.18876,0.0101 -0.75652,-0.014 -0.34319,-0.0146 -0.45776,-0.025 -0.4685,-0.0423 -0.0155,-0.0251 -0.10398,-0.43839 -0.15573,-0.72749 -0.1046796,-0.5848 -0.2076196,-1.66955 -0.1621596,-1.68498 z m -1.0987403,0.36369 -0.005,0.20024 -0.005,0.20025 -0.19562,0.20564 c -0.49248,0.51778 -0.9603,0.90998 -1.3956498,1.17006 -0.12274,0.0733 -0.13396,0.0748 -0.21016,0.0284 -0.0313,-0.0191 -0.0527,-0.0416 -0.0475,-0.05 0.005,-0.008 0.12801,-0.0995 0.27289,-0.20247 0.6700098,-0.47601 1.0595498,-0.84408 1.4208898,-1.34267 0.0474,-0.0653 0.10378,-0.13919 0.12541,-0.16409 z m -0.22565,0.0884 c -3.5e-4,0.0227 -0.19696,0.27477 -0.3594,0.46068 -0.20233,0.23156 -0.50413,0.49985 -0.84082,0.7475 -0.2244498,0.16509 -0.5477898,0.38739 -0.5634898,0.38739 -0.008,0 -0.0399,-0.0227 -0.071,-0.0504 -0.031,-0.0277 -0.0525,-0.0537 -0.0478,-0.0576 0.005,-0.004 0.098,-0.0602 0.20723,-0.12489 0.5191598,-0.30744 0.8383198,-0.55652 1.3254298,-1.03447 0.19247,-0.18885 0.34986,-0.33653 0.34976,-0.32817 z m -4.1715898,0.16805 c 0.007,-0.001 0.0147,0.007 0.0199,0.0213 0.006,0.0182 0.03,0.0791 0.0524,0.13539 0.0269,0.0677 0.0406,0.13777 0.0407,0.20726 1.7e-4,0.20798 0.073,0.91463 0.13051,1.2665 0.007,0.0437 0.005,0.0734 -0.005,0.0734 -0.009,0 -0.0371,-0.0913 -0.0622,-0.20296 -0.0251,-0.11161 -0.0574,-0.26898 -0.0717,-0.34972 -0.0602,-0.33867 -0.13664,-1.12135 -0.11198,-1.14714 0.002,-0.002 0.005,-0.004 0.007,-0.004 z m 4.3669098,0.35668 c 0.0133,0 -8.1e-4,1.35031 -0.0146,1.39467 -0.007,0.0231 -0.10878,0.0236 -0.96636,0.005 -0.40844,-0.009 -0.43584,-0.0115 -0.50649,-0.0492 -0.0901,-0.0481 -0.0852,-0.0574 0.0833,-0.15754 0.30106,-0.17885 0.66859,-0.48112 1.08811,-0.89488 0.16622,-0.16394 0.30845,-0.29806 0.31607,-0.29806 z m 10.7983599,0.0999 c -0.48419,0.002 -0.91909,0.10781 -1.22819,0.29852 -0.21236,0.13104 -0.43306,0.35112 -0.5094,0.50801 -0.0543,0.11158 -0.0587,0.1331 -0.0587,0.28634 0,0.16041 0.002,0.17044 0.0741,0.31513 0.0625,0.12603 0.086,0.15646 0.15042,0.1942 0.0846,0.0496 0.3123,0.10129 0.55272,0.12556 0.22212,0.0224 1.213,0.0237 1.57549,0.002 0.40227,-0.0241 0.59402,-0.0628 0.78212,-0.15786 0.12111,-0.0612 0.15666,-0.0889 0.20309,-0.1584 0.21064,-0.31519 0.0953,-0.70517 -0.30935,-1.04576 -0.30363,-0.25558 -0.68725,-0.37006 -1.23229,-0.36771 z m -4.11068,1.8e-4 c -0.58786,0.002 -1.04117,0.13968 -1.40238,0.42547 -0.16562,0.13105 -0.26606,0.25115 -0.34038,0.40705 -0.0471,0.0989 -0.0535,0.12979 -0.0529,0.25907 4.9e-4,0.1204 0.009,0.16746 0.0486,0.26157 0.0722,0.17284 0.14536,0.24863 0.28032,0.29031 0.13059,0.0403 0.26953,0.0658 0.47355,0.0868 0.19709,0.0203 1.58894,0.008 1.80001,-0.0163 0.31056,-0.0353 0.55012,-0.11484 0.67424,-0.22381 0.0348,-0.0306 0.085,-0.0998 0.1115,-0.15372 0.0425,-0.0866 0.0482,-0.11751 0.0482,-0.26309 0,-0.15703 -0.003,-0.17161 -0.0677,-0.30227 -0.054,-0.10958 -0.10109,-0.17065 -0.23319,-0.30263 -0.19136,-0.19119 -0.33762,-0.28461 -0.56348,-0.35994 -0.23645,-0.0789 -0.45729,-0.10976 -0.77646,-0.10859 z m -4.82443,0.13283 c 0.004,-0.004 0.0965,0.10289 0.205,0.23804 0.34166,0.42546 0.5958,0.66925 0.94052,0.90222 0.095,0.0642 0.17532,0.12347 0.17849,0.1317 0.003,0.008 -0.062,0.015 -0.14474,0.015 h -0.15045 l -0.15511,-0.15113 c -0.17779,-0.17322 -0.36526,-0.39192 -0.58282,-0.68 -0.15196,-0.2012 -0.30526,-0.44142 -0.29089,-0.45579 z m -6.8041797,0.028 c 0.015,0.002 0.016,0.0309 0.009,0.13559 -0.0122,0.17861 -0.0337,0.21159 -0.33214,0.51095 -0.34761,0.34863 -0.74596,0.62581 -0.94147,0.65507 -0.0427,0.006 -0.0913,0.0155 -0.10794,0.0202 -0.0166,0.005 -0.0302,8.1e-4 -0.0302,-0.009 0,-0.009 0.0758,-0.0695 0.1684,-0.13345 0.0926,-0.064 0.22669,-0.16312 0.29794,-0.22031 0.18501,-0.14853 0.5884,-0.55884 0.75842,-0.77142 0.0798,-0.0998 0.15665,-0.18406 0.17086,-0.18741 0.003,-6.5e-4 0.005,-9.7e-4 0.007,-6.5e-4 z m 0.84749,0.20532 c 0.006,0 0.0642,0.11075 0.13012,0.24612 0.0659,0.13536 0.17905,0.33444 0.25138,0.44238 0.0723,0.10794 0.13152,0.19924 0.13152,0.20292 0,0.004 -0.0896,0.007 -0.19905,0.007 -0.19055,0 -0.19968,-0.002 -0.21375,-0.0389 -0.0346,-0.0914 -0.12415,-0.85925 -0.10022,-0.85925 z m -0.8644,0.31097 c 0.007,0 0.013,0.13107 0.013,0.2914 0,0.2129 -0.006,0.29596 -0.0216,0.308 -0.0119,0.009 -0.16539,0.0339 -0.34113,0.0551 -0.17574,0.0213 -0.3409,0.0429 -0.36703,0.0481 -0.0281,0.006 -0.0475,0.002 -0.0475,-0.009 0,-0.0102 0.0641,-0.0671 0.1425,-0.12644 0.0784,-0.0594 0.24742,-0.21121 0.37566,-0.33747 0.12824,-0.12627 0.23899,-0.22962 0.24612,-0.22966 z m 1.2149,0.0887 c 0.009,10e-4 0.0547,0.0455 0.10533,0.10264 0.054,0.061 0.14724,0.1575 0.20722,0.2145 0.11303,0.10743 0.12811,0.1358 0.0817,0.1536 -0.0639,0.0245 -0.0911,0.006 -0.18473,-0.12385 -0.11874,-0.16493 -0.22234,-0.33516 -0.21091,-0.3466 3.5e-4,-3.4e-4 8.1e-4,-3.4e-4 10e-4,-3.4e-4 z m 1.36927,0.25669 c 0.0183,0 0.0711,0.0254 0.11712,0.0564 0.0461,0.031 0.13622,0.0834 0.20031,0.11657 0.0641,0.0331 0.11654,0.0661 0.11658,0.0732 3e-5,0.007 -0.0814,0.013 -0.18088,0.013 -0.16912,0 -0.18252,-0.003 -0.20467,-0.0389 -0.10559,-0.17308 -0.11597,-0.22018 -0.0485,-0.22018 z m -1.36371,0.58815 c 0.0474,4.9e-4 0.10661,0.002 0.17962,0.005 0.41721,0.0157 0.41661,0.046 -9.8e-4,0.046 -0.20331,0 -0.33474,-0.007 -0.34135,-0.0174 -0.0156,-0.0252 0.0204,-0.0349 0.16264,-0.0335 z m 0.74675,0.0349 c 0.0194,-4.8e-4 0.0472,0.002 0.0887,0.005 0.0671,0.006 0.13107,0.0188 0.14202,0.0279 0.0242,0.0201 0.12126,0.34207 0.1073,0.35603 -0.005,0.005 -0.17953,4.9e-4 -0.38681,-0.0111 -0.4926,-0.0275 -0.71527,-0.0196 -0.81325,0.029 -0.0405,0.0201 -0.0768,0.0314 -0.0807,0.0251 -0.006,-0.0103 -0.0788,-0.28441 -0.0788,-0.2983 -10e-6,-0.003 0.17417,-0.003 0.38703,-3.4e-4 0.36746,0.005 0.39151,0.004 0.47568,-0.0326 0.0488,-0.021 0.0969,-0.0536 0.10707,-0.0725 0.0104,-0.0195 0.0195,-0.0277 0.0518,-0.0286 z m 1.30759,0.14076 c 0.0675,9.8e-4 0.2958398,0.0165 0.5512598,0.0377 0.29192,0.0242 0.64733,0.0522 0.78982,0.0622 0.3756,0.0264 0.33889,0.003 0.33307,0.21195 l -0.005,0.17654 -0.10361,0.002 c -0.057,10e-4 -0.17359,-0.004 -0.25908,-0.0114 -0.0855,-0.007 -0.41193,-0.0346 -0.72542,-0.0603 l -0.5699798,-0.0467 -0.0741,-0.0783 c -0.0922,-0.0973 -0.11858,-0.14244 -0.0833,-0.14244 0.0139,0 0.12161,0.0234 0.23945,0.0521 0.2854198,0.0694 0.4619798,0.10229 0.4619798,0.086 0,-0.007 -0.0641,-0.0389 -0.14248,-0.0702 -0.0784,-0.0313 -0.21632,-0.0918 -0.3065698,-0.13452 -0.12385,-0.0586 -0.15448,-0.0793 -0.12488,-0.0844 0.003,-4.8e-4 0.009,-6.5e-4 0.0187,-4.8e-4 z m -3.27713,0.0479 -0.005,0.0734 -0.005,0.0734 -0.1727,0.0109 c -0.36818,0.0232 -1.01905,0.0346 -1.00175,0.0176 v 0 c 0.0282,-0.0277 0.95945,-0.17447 1.1107,-0.17502 z m 6.5168797,0.19429 c 0.0662,8.1e-4 0.21517,0.009 0.38471,0.0205 0.74283,0.0524 1.74024,0.13047 1.77848,0.13928 0.0288,0.007 0.0518,0.0456 0.0994,0.16839 0.034,0.0879 0.0618,0.17337 0.0618,0.19 0,0.0336 0.004,0.0334 -0.23322,0.0106 -0.2896,-0.0279 -1.80782,-0.13578 -1.9107,-0.13578 -0.11759,0 -0.10723,0.0131 -0.18082,-0.2295 -0.0253,-0.0835 -0.0415,-0.1563 -0.036,-0.16183 0.001,-0.001 0.0143,-0.002 0.0364,-0.002 z m 4.6882,0.44697 c 0.0247,-3.4e-4 0.0903,0.0129 0.26435,0.0479 1.09908,0.22112 1.89414,0.70463 2.17414,1.32216 l 0.0487,0.10753 0.4804,0.0114 c 0.26422,0.006 0.7097,0.0121 0.98993,0.013 0.28023,8.2e-4 0.54838,0.007 0.59588,0.013 l 0.0863,0.0114 0.0305,0.095 c 0.0168,0.0522 0.0353,0.13579 0.0412,0.18566 l 0.0107,0.0907 -0.758,-0.004 c -0.41691,-0.002 -0.98342,-0.008 -1.2589,-0.013 l -0.5009,-0.009 -0.0107,-0.13817 c -0.0127,-0.16435 -0.0378,-0.26256 -0.0971,-0.37969 -0.16652,-0.32918 -0.52353,-0.58488 -1.07142,-0.76735 -0.24763,-0.0825 -0.51048,-0.14208 -0.95889,-0.21744 -0.18802,-0.0316 -0.35387,-0.0674 -0.36851,-0.0795 -0.0409,-0.0339 -0.13194,-0.17208 -0.12078,-0.18323 0.005,-0.005 0.082,0.0103 0.17008,0.0349 0.36219,0.10142 0.96894,0.23645 1.0625,0.23645 0.0746,0 0.0281,-0.0248 -0.22009,-0.11741 -0.43669,-0.16299 -0.60451,-0.2316 -0.60451,-0.24709 0,-0.008 1.3e-4,-0.0131 0.0149,-0.0132 z m -10.9566297,0.40368 0.0558,0.004 c 0.0307,0.002 0.16436,0.0399 0.297,0.0834 0.1916,0.0628 0.27242,0.0998 0.39324,0.17972 0.17388,0.11505 0.41827,0.35269 0.44852,0.43611 0.0236,0.0652 0.029,0.13485 0.0101,0.13245 -0.007,-9.8e-4 -0.0674,-0.0441 -0.13384,-0.0959 -0.17499,-0.13638 -0.3547,-0.21659 -0.72228,-0.32244 -0.17876,-0.0515 -0.33261,-0.10117 -0.34188,-0.11044 -0.009,-0.009 -0.0145,-0.0822 -0.0118,-0.16206 z m 2.77898,0.0384 c 0.25448,10e-4 0.5979198,0.0213 0.6892998,0.0498 0.0403,0.0126 0.35992,0.38602 0.34753,0.40607 -0.005,0.008 -0.0148,0.0143 -0.0213,0.0131 -0.007,-0.001 -0.0858,-0.0176 -0.17602,-0.0364 -0.13549,-0.0282 -0.2393,-0.0346 -0.5956498,-0.0367 l -0.43156,-0.002 -0.058,-0.17888 c -0.0338,-0.10435 -0.0516,-0.18527 -0.0426,-0.19423 0.015,-0.015 0.13564,-0.021 0.28834,-0.0202 z m 2.2190098,0.88561 c 0.0507,0 0.40942,0.11259 0.6600803,0.20719 0.3867496,0.14596 0.7594196,0.36336 1.1645996,0.67938 0.32262,0.25163 0.39959,0.33129 0.44846,0.46417 0.0234,0.0637 0.037,0.11929 0.0301,0.12353 -0.007,0.004 -0.0553,-0.0269 -0.10753,-0.0692 -0.36935,-0.29895 -0.6956,-0.51284 -1.02561,-0.67243 -0.2373296,-0.11477 -0.7506899,-0.29388 -0.9865399,-0.3442 -0.23056,-0.0492 -0.21592,-0.034 -0.21592,-0.22403 0,-0.14923 0.003,-0.16442 0.0324,-0.16442 z m 5.5270199,0.23635 c 0.26664,0.001 0.49137,0.0199 0.6671,0.0559 0.33826,0.0694 0.33105,0.0653 0.51185,0.28643 0.0887,0.10853 0.16406,0.20535 0.16733,0.21517 0.008,0.0254 -0.0226,0.0202 -0.16966,-0.0282 -0.36848,-0.12144 -0.71857,-0.15588 -1.30092,-0.12799 -0.22968,0.011 -0.53321,0.0319 -0.6745,0.0466 -0.14129,0.0146 -0.26304,0.0201 -0.27056,0.0123 -0.0185,-0.0193 -0.13752,-0.31776 -0.13752,-0.34479 0,-0.0356 0.0222,-0.0408 0.2884,-0.0668 0.34331,-0.0336 0.65184,-0.0498 0.91848,-0.0486 z"
     id="path5239"
     inkscape:connector-curvature="0"
     inkscape:export-xdpi="100"
     inkscape:export-ydpi="100" />
</svg>
