<?xml version="1.0" encoding="UTF-8" standalone="no"?>
<svg
   xmlns:dc="http://purl.org/dc/elements/1.1/"
   xmlns:cc="http://creativecommons.org/ns#"
   xmlns:rdf="http://www.w3.org/1999/02/22-rdf-syntax-ns#"
   xmlns:svg="http://www.w3.org/2000/svg"
   xmlns="http://www.w3.org/2000/svg"
   xmlns:sodipodi="http://sodipodi.sourceforge.net/DTD/sodipodi-0.dtd"
   xmlns:inkscape="http://www.inkscape.org/namespaces/inkscape"
   fill="#ffffff"
   height="24"
   viewBox="0 0 24 24"
   width="24"
   version="1.1"
   id="svg897"
   sodipodi:docname="emblem.svg"
   inkscape:version="0.92.4 (f8dce91, 2019-08-02)"
   inkscape:export-filename="/home/onux/Documents/other/Semester 4/batamlinux.github.io/images/favicon1.png"
   inkscape:export-xdpi="192"
   inkscape:export-ydpi="192">
  <metadata
     id="metadata903">
    <rdf:RDF>
      <cc:Work
         rdf:about="">
        <dc:format>image/svg+xml</dc:format>
        <dc:type
           rdf:resource="http://purl.org/dc/dcmitype/StillImage" />
        <dc:title></dc:title>
      </cc:Work>
    </rdf:RDF>
  </metadata>
  <defs
     id="defs901" />
  <sodipodi:namedview
     pagecolor="#ffffff"
     bordercolor="#666666"
     borderopacity="1"
     objecttolerance="10"
     gridtolerance="10"
     guidetolerance="10"
     inkscape:pageopacity="0"
     inkscape:pageshadow="2"
     inkscape:window-width="1366"
     inkscape:window-height="685"
     id="namedview899"
     showgrid="false"
     inkscape:zoom="18.704644"
     inkscape:cx="10.129601"
     inkscape:cy="12.645806"
     inkscape:window-x="0"
     inkscape:window-y="0"
     inkscape:window-maximized="1"
     inkscape:current-layer="svg897" />
  <path
     d="M0 0h24v24H0z"
     fill="none"
     id="path895" />
  <path
     style="fill:#ffffff;stroke-width:0.40245512;fill-opacity:1"
     d="m 13.048918,2.0364713 c -0.146109,0.00111 -0.280438,0.052257 -0.415509,0.1538259 -0.362876,0.272788 -0.759742,0.9729096 -0.941036,1.6601774 -0.114024,0.4322493 -0.125028,0.5220715 -0.12381,1.0080836 0.0012,0.5037816 0.02082,0.6192783 0.151046,0.8942585 0.194126,0.4097633 0.635986,0.5991948 1.147805,0.4921123 0.260687,-0.054582 0.575646,-0.2519296 0.762442,-0.4778635 0.122694,-0.1483788 0.270929,-0.3993673 0.344608,-0.5834845 0.06743,-0.1683627 0.16461,-0.5061287 0.16461,-0.5719481 0,-0.017825 0.02712,-0.069306 0.06034,-0.114434 0.106507,-0.1447584 0.09012,-0.3541406 -0.03388,-0.4354046 -0.103299,-0.067646 -0.807203,-0.020925 -1.184207,0.078718 -0.29813,0.078828 -0.534371,0.2050533 -0.591932,0.3163651 -0.05823,0.1126403 -0.02203,0.3065779 0.06909,0.3704487 0.06931,0.048604 0.151158,0.037532 0.325089,-0.044064 0.08824,-0.041407 0.233728,-0.096431 0.323208,-0.1223721 0.176123,-0.051039 0.526698,-0.1039602 0.547934,-0.082814 0.02104,0.021036 -0.04672,0.2774823 -0.114744,0.4338435 C 13.4205,5.2867226 13.224858,5.5249014 13.032658,5.629504 12.775703,5.7693578 12.413093,5.7739414 12.217351,5.639474 12.048312,5.523645 11.987552,5.3066457 11.990497,4.8294023 c 0.0044,-0.6837138 0.177054,-1.2339177 0.577008,-1.8370319 0.330514,-0.498412 0.51048,-0.5376379 0.99895,-0.2176857 0.0795,0.052035 0.158697,0.094661 0.175991,0.094661 0.138271,0 0.248486,-0.1840397 0.205596,-0.3433128 -0.04019,-0.1493909 -0.291173,-0.3274632 -0.620756,-0.4405021 -0.09887,-0.033878 -0.19075,-0.050596 -0.278424,-0.0496 z m -8.787796,0.00554 c -0.022586,-2.21e-5 -0.047496,9.97e-5 -0.075175,3.875e-4 -0.1946572,0.00111 -0.2855645,0.011735 -0.4190522,0.046943 -0.2538782,0.066761 -0.2434267,0.041407 -0.2638203,0.6417201 -0.00886,0.2712048 -0.033657,0.8502165 -0.054361,1.2866841 -0.020704,0.4364563 -0.037532,1.054229 -0.037421,1.3727973 1.882e-4,0.6459493 0.00332,0.6658999 0.1378389,0.7787285 l 0.062776,0.052918 0.2583177,-0.011071 C 4.0122925,6.2055813 4.2059643,6.186317 4.3006248,6.1694886 4.5427229,6.1263101 4.7149052,6.0730567 4.9018899,5.9835444 5.1187785,5.8796948 5.399239,5.6072056 5.4977855,5.4045771 c 0.060561,-0.1245975 0.064878,-0.1461978 0.064878,-0.3251004 0,-0.1732673 -0.00554,-0.2020419 -0.055136,-0.3004001 C 5.4248251,4.6157404 5.250041,4.4529466 4.9858222,4.2930204 4.9534937,4.2734239 4.9563722,4.2658954 5.0234649,4.1916063 5.2683531,3.9205455 5.3743395,3.5991208 5.357511,3.1786182 5.3475467,2.9333537 5.3131147,2.8081141 5.2043604,2.6242404 5.0763308,2.4077725 4.804971,2.182348 4.559031,2.0881414 4.4617135,2.0508309 4.4189337,2.0424166 4.2610556,2.0421952 Z m 2.0422291,0.066761 c -0.011071,-3.764e-4 -0.023029,8.969e-4 -0.037532,0.00332 -0.036978,0.00554 -0.084585,0.02635 -0.1057317,0.045171 -0.083147,0.073957 -0.090564,0.1293912 -0.091117,0.6790528 -7.196e-4,0.6584046 -0.026682,1.5914572 -0.0682,2.4530773 -0.030114,0.6242032 -0.030114,0.6766595 -5.427e-4,0.7785384 0.03875,0.1334324 0.093,0.199263 0.1936055,0.2348354 0.091671,0.032439 0.3232404,0.036204 0.5454986,0.00886 0.5601897,-0.069088 1.1386922,-0.2433738 1.273121,-0.3836816 0.076281,-0.079714 0.087686,-0.2466817 0.023139,-0.3416078 -0.0248,-0.036536 -0.067979,-0.079271 -0.095989,-0.094993 -0.047829,-0.026793 -0.070524,-0.021922 -0.3820516,0.081597 -0.4112137,0.136776 -0.6942427,0.201599 -0.9473788,0.2170104 -0.167787,0.00997 -0.1971262,0.00775 -0.2070905,-0.018378 -0.00664,-0.016608 0.00221,-0.2352007 0.018378,-0.485702 0.04351,-0.6606743 0.072407,-1.7407107 0.065321,-2.4408988 l -0.00664,-0.6086166 -0.073736,-0.067646 c -0.047718,-0.043732 -0.070635,-0.05901 -0.1035173,-0.060007 z m 12.7870049,0.039525 c -0.0012,-1.993e-4 -0.0022,-1.44e-4 -0.0034,1.439e-4 -0.0099,0.00332 -0.187273,0.311073 -0.394751,0.6841567 -0.922357,1.6585389 -1.730071,3.0169323 -2.05557,3.456976 -0.452765,0.6120708 -1.05817,1.1933742 -1.794971,1.7234836 -0.092,0.066207 -0.167322,0.1278856 -0.167322,0.137086 0,0.023139 0.184272,-0.048493 0.544889,-0.2117404 0.16823,-0.076171 0.680249,-0.3263182 1.137796,-0.5558281 0.457547,-0.2295101 0.974815,-0.4855803 1.149499,-0.5690918 0.174673,-0.083478 0.322332,-0.1595499 0.328133,-0.1689384 0.0056,-0.00886 -0.02225,-0.071521 -0.06222,-0.1381599 -0.150804,-0.2507338 -0.222912,-0.5971687 -0.188912,-0.9075442 0.06831,-0.6235186 0.525005,-1.1398441 1.138693,-1.2873593 0.177607,-0.042736 0.510778,-0.041961 0.684954,0.00111 0.472914,0.1180321 0.884316,0.4830338 1.043257,0.9255795 0.02402,0.066761 0.05326,0.1250956 0.0651,0.129646 0.03278,0.012621 0.312723,-0.1227375 0.33326,-0.1610999 0.04074,-0.076171 0.06366,-0.4164726 0.04174,-0.6202747 C 20.841563,4.1309462 20.711795,3.8169837 20.426717,3.4639613 20.147264,3.1179027 19.17338,2.1601608 19.090311,2.1478827 Z m -8.169736,0.062886 c -0.04096,-0.00111 -0.08248,0.013507 -0.118463,0.047386 -0.08725,0.082039 -0.10086,0.1868851 -0.112896,0.8741086 -0.01572,0.8941367 -0.05724,1.3386532 -0.165639,1.7742791 -0.09987,0.401172 -0.271547,0.6891832 -0.467157,0.7835225 C 9.8852786,5.7730705 9.602283,5.7421812 9.4103386,5.6200637 9.1703987,5.4673408 9.0130853,5.1168869 8.9590015,4.6146221 8.9464909,4.4983061 8.9378552,4.036164 8.9378552,3.484244 c 0,-0.9539664 -0.00886,-1.0995332 -0.073846,-1.18744 -0.1081675,-0.1467181 -0.2799402,-0.062 -0.3294293,0.162528 -0.030667,0.1391231 -0.044839,1.5431418 -0.019707,1.9547429 0.060339,0.9888304 0.312645,1.5020338 0.8353141,1.6987613 0.2151509,0.080932 0.4966513,0.1065068 0.700621,0.063549 0.175215,-0.036867 0.301451,-0.1104926 0.4551,-0.2652263 0.286572,-0.2886201 0.458456,-0.7549029 0.555385,-1.5066615 0.0765,-0.5931831 0.09621,-1.9003713 0.031,-2.054452 -0.03676,-0.08691 -0.103409,-0.1361222 -0.171631,-0.1388015 z m -6.8121504,0.356759 c 0.027347,0 0.056796,3.876e-4 0.087021,0.00111 0.1967608,0.00554 0.2307942,0.012068 0.3234839,0.060118 0.1353367,0.070192 0.2872584,0.215394 0.356986,0.3412425 0.051592,0.093111 0.055579,0.1148214 0.054139,0.2918087 -0.00109,0.1297788 -0.012068,0.2188814 -0.033989,0.277283 -0.051372,0.1363773 -0.162639,0.282874 -0.2771283,0.3648687 -0.1765001,0.1263799 -0.3625659,0.1665581 -0.6371807,0.1375731 -0.038639,-0.00443 -0.078053,-0.017714 -0.087686,-0.030225 -0.0248,-0.032439 0.033768,-1.4142154 0.060782,-1.4339003 0.00886,-0.00664 0.071632,-0.00997 0.1536156,-0.00997 z M 19.063054,4.4323871 c -0.738894,-0.00111 -1.328058,0.5814141 -1.330926,1.3166764 -0.0012,0.4097633 0.1425,0.7369118 0.446001,1.012346 0.142399,0.1292363 0.402954,0.2620931 0.598087,0.3049836 0.196683,0.043289 0.492311,0.028565 0.688386,-0.034321 0.826823,-0.26495 1.183654,-1.237273 0.724965,-1.9754691 C 19.949108,4.6696248 19.522616,4.4332949 19.063054,4.4323871 Z m -4.295225,0.044285 c -0.01827,0 -0.06211,0.1433191 -0.102409,0.3350093 -0.04915,0.2332188 -0.05547,0.4395896 -0.02015,0.6497689 0.03598,0.213855 0.16471,0.621094 0.264872,0.8378609 l 0.06588,0.142666 0.3377,0.014061 c 0.185722,0.00775 0.442745,0.020261 0.571128,0.0279 0.393688,0.02336 0.362943,0.026461 0.428153,-0.042515 0.142179,-0.150272 0.617984,-0.8494304 0.617984,-0.9080756 0,-0.00997 -0.10108,-0.023582 -0.224705,-0.029892 C 16.444592,5.4899486 16.225677,5.4511987 16.017856,5.38177 15.611968,5.2461233 15.202227,4.9645335 14.902613,4.6152753 14.837181,4.5389935 14.776576,4.4766615 14.767885,4.4766615 Z m -10.9067828,0.1079461 0.2273511,0.00443 c 0.2813461,0.00554 0.4570159,0.047939 0.6970106,0.1660377 0.2058946,0.1013037 0.3661863,0.2401939 0.3661863,0.3171179 0,0.0992 -0.2097034,0.3201072 -0.391562,0.4124647 C 4.6096495,5.5610605 4.4702496,5.6033755 4.23661,5.6435868 4.0150271,5.6816728 3.867689,5.6909728 3.844904,5.6681648 3.828076,5.6513368 3.830511,4.7558599 3.848224,4.659262 Z M 19.668825,4.7834831 c 0.03033,-1.44e-4 0.06587,0.0124 0.106839,0.037421 0.07384,0.04506 0.197602,0.2292 0.252361,0.3755638 0.05978,0.1596606 0.05215,0.2454306 -0.03277,0.3690538 l -0.07174,0.1044031 v 0.2686916 c 0,0.2585946 -0.0012,0.2688799 -0.0403,0.2744156 -0.02602,0.00332 -0.08602,-0.031664 -0.169758,-0.1004178 -0.152286,-0.12483 -0.191402,-0.1346503 -0.175237,-0.043953 0.04506,0.2528263 0.05491,0.3835906 0.03399,0.4533071 -0.03521,0.1174675 -0.06798,0.1171021 -0.21711,-0.00221 -0.06798,-0.054472 -0.129369,-0.029118 -0.176844,0.073071 -0.0475,0.1021885 -0.08503,0.1404517 -0.137872,0.1404517 -0.03101,0 -0.05115,-0.0155 -0.06399,-0.049046 -0.0099,-0.027014 -0.01871,-0.0775 -0.01871,-0.1123857 0,-0.034875 -0.01152,-0.072961 -0.02569,-0.084696 -0.04329,-0.035872 -0.139335,-0.046057 -0.211498,-0.022143 -0.06045,0.019929 -0.08049,0.01716 -0.169901,-0.023803 C 18.425374,6.3838525 18.316576,6.2902885 18.26981,6.1996802 18.250323,6.1618159 18.195076,6.0807624 18.147217,6.0194269 18.050232,5.8952501 18.018069,5.7907583 18.06307,5.7457974 c 0.02469,-0.024689 0.03808,-0.019707 0.110493,0.040743 0.04528,0.037864 0.09609,0.066207 0.112994,0.062996 0.04628,-0.00886 0.04728,-0.1052889 0.0034,-0.2787444 -0.04927,-0.1931073 -0.04915,-0.2377028 5.32e-4,-0.2827523 0.05414,-0.049047 0.154268,-0.042624 0.290568,0.018711 0.18787,0.084474 0.224129,0.061668 0.224129,-0.1412378 0,-0.1528405 0.03997,-0.2343924 0.110737,-0.2261664 0.03753,0.00443 0.07584,0.039082 0.143529,0.1302549 0.183397,0.2469031 0.270607,0.3040427 0.367294,0.2406922 0.0682,-0.044728 0.08459,-0.087243 0.102964,-0.2695774 0.0176,-0.1730127 0.06178,-0.2567345 0.139378,-0.2571331 z m 1.191481,0.6302279 c -0.01528,0 -0.09134,0.031443 -0.169116,0.06986 l -0.141304,0.069971 -0.01107,0.2408138 c -0.01196,0.2732641 -0.0424,0.4026112 -0.147637,0.6280358 -0.04052,0.0868 -0.06587,0.1577784 -0.05646,0.1577784 0.0099,0 0.105289,-0.043289 0.212858,-0.09621 0.24108,-0.1185413 0.310277,-0.1703001 0.365191,-0.2730205 0.03808,-0.0713 0.04285,-0.1077246 0.04273,-0.3287539 -1.99e-4,-0.2688024 -0.04096,-0.4684749 -0.09577,-0.4684749 z m -0.04395,1.1392242 c -0.02635,5.314e-4 -0.137541,0.046278 -0.257886,0.1066174 -0.128373,0.064435 -0.290137,0.1364549 -0.359499,0.1601034 -0.06931,0.023692 -0.180541,0.083036 -0.24707,0.1320374 -0.133322,0.098203 -0.347065,0.2064041 -0.472991,0.2395517 -0.04473,0.011735 -0.08127,0.031 -0.08127,0.042847 0,0.015611 0.176655,0.018268 0.65163,0.00997 0.585886,-0.00997 0.658592,-0.015057 0.720637,-0.047275 0.09865,-0.05126 0.143662,-0.1489545 0.14603,-0.317295 0.0022,-0.1473714 -0.0445,-0.3064341 -0.09543,-0.3259972 -8.98e-4,-3.765e-4 -0.0022,-5.314e-4 -0.0044,-5.314e-4 z m -5.732528,0.057018 c -0.128751,0.00111 -0.145014,0.030889 -0.196851,0.1694698 -0.07064,0.1886233 -0.0434,0.2756445 0.110604,0.3550927 0.06742,0.034765 0.359355,0.092889 0.474387,0.094439 l 0.09965,0.00111 0.270485,-0.2695441 c 0.16937,-0.1688055 0.26372,-0.2763087 0.252438,-0.2875905 -0.01627,-0.016274 -0.363938,-0.039636 -0.901775,-0.060561 -0.04351,-0.00111 -0.07916,-0.00332 -0.108943,-0.00221 z m 2.851979,0.2115965 c -0.06288,-1.11e-5 -0.139998,0.033214 -0.280284,0.099864 -0.5575,0.2645509 -0.648761,0.3115933 -0.638066,0.3288868 0.01307,0.021147 0.850039,0.024467 1.391375,0.00554 v -3.32e-5 c 0.197625,-0.00664 0.352524,-0.018157 0.34421,-0.025021 -0.0089,-0.00664 -0.06677,-0.0279 -0.129846,-0.046721 -0.154922,-0.046278 -0.358602,-0.1547226 -0.492898,-0.2624695 -0.08304,-0.06665 -0.131639,-0.099975 -0.194491,-0.099975 z M 6.6246429,6.9832248 c -0.022032,-7.196e-4 -0.047829,0.00111 -0.064767,0.00554 -0.040189,0.00997 -0.041075,0.017271 -0.037089,0.3314775 0.00221,0.1766219 0.00443,0.3235392 0.00443,0.3264953 3.764e-4,0.00332 0.1061746,0.00332 0.234979,0 l 0.2342153,-0.00554 0.00554,-0.083921 0.00554,-0.083921 -0.065653,0.069528 c -0.05425,0.057571 -0.078939,0.069639 -0.1423117,0.069639 -0.1175004,0 -0.1235122,-0.017382 -0.1173234,-0.3385521 0.00554,-0.2826084 0.00554,-0.2829515 -0.038639,-0.2893065 -0.00554,-8.968e-4 -0.013064,-0.00111 -0.020371,-0.00111 z m 2.6390209,0 c -0.022143,-7.196e-4 -0.047939,0.00111 -0.064878,0.00554 -0.039525,0.00997 -0.040854,0.0186 -0.035097,0.2358428 0.00332,0.1240439 0.014061,0.2568784 0.024025,0.2951743 0.031996,0.1228925 0.1764228,0.1807737 0.3099991,0.1242321 0.12173,-0.051482 0.1358684,-0.085471 0.1470287,-0.3530224 0.00555,-0.1333217 0.016492,-0.2522727 0.024356,-0.2643184 0.017047,-0.026239 -0.030995,-0.048382 -0.071184,-0.032993 -0.021916,0.00886 -0.023801,0.019486 -0.00775,0.048936 0.012293,0.022917 0.017822,0.1292806 0.013948,0.267507 -0.00555,0.21432 -0.0089,0.2319456 -0.051477,0.2660345 C 9.4866446,7.6295217 9.4080195,7.6232107 9.358597,7.5603257 9.320293,7.5117217 9.317853,7.4898007 9.323057,7.2495849 9.328607,6.9922415 9.328607,6.9911675 9.284418,6.9848347 9.278868,6.9839379 9.27135,6.9837247 9.264051,6.9837247 Z m 2.2345282,0.00111 c -0.04041,0.00111 -0.06599,0.011514 -0.106174,0.0341 -0.120512,0.067757 -0.169149,0.1566823 -0.169149,0.3093457 0,0.1005288 0.0089,0.1407618 0.03941,0.1818919 0.05558,0.074511 0.126945,0.1238004 0.201046,0.138946 0.08824,0.018046 0.302935,-0.00664 0.332861,-0.038528 0.01361,-0.014393 0.02879,-0.071521 0.03365,-0.1269115 0.0077,-0.092114 0.0055,-0.1016356 -0.0341,-0.1115332 -0.0237,-0.00554 -0.06333,-0.00775 -0.08813,-0.00443 -0.04174,0.00554 -0.0445,0.013618 -0.03842,0.1073925 0.0044,0.060671 -0.0022,0.1122086 -0.01671,0.1290593 -0.03808,0.045836 -0.126624,0.033546 -0.194425,-0.027014 -0.05658,-0.050485 -0.06234,-0.066539 -0.06941,-0.1911255 -0.0099,-0.1788473 0.0055,-0.2550849 0.06665,-0.3157229 0.03731,-0.03731 0.06941,-0.049931 0.126778,-0.049931 0.06499,0 0.08824,0.012068 0.150571,0.0775 0.07883,0.082814 0.101415,0.074511 0.08912,-0.032882 -0.0044,-0.042182 -0.01683,-0.055025 -0.05403,-0.057903 -0.02635,-0.00221 -0.104956,-0.00997 -0.174707,-0.016828 -0.04118,-0.00443 -0.07074,-0.00664 -0.095,-0.00554 z m -7.7949242,0.00332 c -0.033989,-5.425e-4 -0.058568,5.314e-4 -0.065653,0.00332 -0.020039,0.00775 -0.024467,0.077832 -0.021036,0.3298611 0.00221,0.1760573 0.00443,0.322255 0.00443,0.3248789 0.00111,0.018489 0.3196312,-3.764e-4 0.3713457,-0.021922 0.131749,-0.055026 0.1618189,-0.1700797 0.068753,-0.2631126 -0.067868,-0.067868 -0.069306,-0.07606 -0.019154,-0.1072817 0.027679,-0.017271 0.038196,-0.044618 0.038196,-0.098868 0,-0.1113228 -0.054028,-0.1454005 -0.2554834,-0.1608783 -0.044618,-0.00332 -0.087907,-0.00554 -0.1219403,-0.00554 z m 3.4964451,0.00332 c -0.061225,0 -0.094771,0.053032 -0.060007,0.094882 0.014282,0.01716 0.043842,0.028675 0.065875,0.025464 0.030335,-0.00443 0.039968,-0.019486 0.039968,-0.063106 0,-0.047718 -0.00775,-0.05735 -0.045725,-0.05735 z m -3.3768298,0.040078 c 0.00997,-1.439e-4 0.021257,0.00332 0.036093,0.011403 0.054914,0.028897 0.068089,0.052921 0.068422,0.1242431 3.764e-4,0.07905 -0.095104,0.1526413 -0.1399424,0.1078353 -0.02159,-0.021589 -0.014061,-0.2077214 0.00886,-0.2311041 0.00775,-0.00775 0.016276,-0.012289 0.026129,-0.0124 z m 0.9867157,0.030667 c -0.012843,0.00221 -0.034211,0.024246 -0.069086,0.067868 -0.055911,0.069971 -0.057128,0.076172 -0.051039,0.2533688 0.00775,0.2105779 0.032218,0.2677284 0.1171131,0.2677284 0.030667,0 0.061779,-0.00997 0.069197,-0.0217 0.00775,-0.011957 -7.196e-4,-0.029561 -0.018046,-0.039193 -0.025021,-0.014061 -0.031332,-0.048715 -0.031332,-0.1713631 0,-0.1377391 0.00443,-0.1548666 0.038196,-0.1638234 0.021036,-0.00554 0.038307,-0.020925 0.038307,-0.034211 0,-0.013286 -0.017271,-0.028675 -0.038307,-0.034211 -0.027789,-0.00775 -0.038196,-0.026128 -0.038196,-0.069197 0,-0.038528 -0.00443,-0.057128 -0.016939,-0.055247 z m 5.5330062,0.1272435 c -0.104514,0.00108 -0.180995,0.095104 -0.180995,0.239917 0,0.1385697 0.0351,0.1898966 0.164465,0.2401275 0.001,3.764e-4 0.02835,-0.00886 0.06056,-0.019707 0.06522,-0.022807 0.102964,-0.080821 0.04728,-0.072628 -0.06189,0.00886 -0.116084,-0.022918 -0.135968,-0.079936 -0.01494,-0.042958 -0.01361,-0.062443 0.0055,-0.080268 0.02082,-0.019375 0.02004,-0.027236 -0.0034,-0.044618 -0.02944,-0.02159 -0.02358,-0.08381 0.01329,-0.1406176 0.01472,-0.022697 0.02303,-0.02314 0.04805,-0.00221 0.03564,0.02956 0.03985,0.1177332 0.0066,0.1503605 -0.01782,0.017825 -0.0055,0.022918 0.05735,0.022918 0.0682,0 0.08026,-0.00554 0.08026,-0.039193 0,-0.054139 -0.04949,-0.1449357 -0.08691,-0.1592731 -0.02658,-0.00997 -0.05215,-0.014947 -0.07628,-0.014614 z m -2.435109,5.314e-4 0.00997,0.1779947 c 0.00554,0.097871 0.013618,0.1977573 0.018489,0.2218818 0.00886,0.045282 0.07916,0.084917 0.1129946,0.064214 0.011071,-0.00664 0.070192,-0.011957 0.1326464,-0.012068 l 0.1134884,-3.74e-4 -0.00443,-0.2103564 c -0.00221,-0.115685 -0.011846,-0.2174533 -0.020371,-0.2261665 -0.00886,-0.00886 -0.039303,-0.013064 -0.068422,-0.00997 l -0.052921,0.00664 0.00443,0.1736326 c 0.00332,0.1391565 -0.00221,0.1787035 -0.026682,0.1990416 -0.053143,0.044064 -0.07606,-0.00775 -0.086357,-0.1966833 l -0.00997,-0.1759909 -0.060893,-0.00554 z m 4.933534,0 0.0099,0.1779947 c 0.0055,0.097871 0.01361,0.1977573 0.0186,0.2218818 0.0089,0.045282 0.07916,0.084917 0.112961,0.064214 0.01107,-0.00664 0.07019,-0.011957 0.132647,-0.012068 l 0.113526,-3.764e-4 -0.0044,-0.2103565 c -0.0022,-0.1156849 -0.01184,-0.2174532 -0.02037,-0.2261664 -0.0089,-0.00886 -0.03919,-0.013064 -0.06832,-0.00997 l -0.05303,0.00664 0.0044,0.1736326 c 0.0034,0.1391564 -0.0022,0.1787035 -0.02658,0.1990416 -0.05314,0.044064 -0.07606,-0.00775 -0.08636,-0.1966833 l -0.0099,-0.1759909 -0.06101,-0.00554 z m -8.4373195,0.00221 c -0.097871,0 -0.1685066,0.035097 -0.1824677,0.090785 -0.013618,0.05425 0.013396,0.087686 0.062996,0.078053 0.025575,-0.00443 0.03565,-0.023914 0.036092,-0.067757 7.197e-4,-0.072075 0.011846,-0.086911 0.053254,-0.071078 0.067425,0.025796 0.061336,0.1493531 -0.00886,0.1714737 -0.055247,0.017492 -0.1698683,0.122494 -0.1698683,0.15552 0,0.090453 0.066871,0.1229035 0.1630706,0.07905 0.03886,-0.017714 0.058346,-0.017714 0.086689,0 0.041075,0.025685 0.1070604,0.030335 0.1194714,0.00886 0.00443,-0.00775 0.00221,-0.093664 -0.00554,-0.1907379 C 4.5428338,7.2367265 4.515377,7.1920423 4.4026033,7.1920423 Z m 2.9851683,0 V 7.4223107 7.65295 l 0.071189,-0.00554 0.071189,-0.00554 -0.00554,-0.162528 c -0.00443,-0.1192279 0.00221,-0.1725477 0.022365,-0.2000822 0.024246,-0.032661 0.031996,-0.0341 0.060118,-0.011071 0.026682,0.022143 0.031332,0.056464 0.026682,0.2000823 l -0.00554,0.1733005 h 0.073736 0.073846 L 7.7725026,7.4695025 C 7.7669668,7.2574189 7.7453776,7.2039441 7.6595743,7.1956848 c -0.034764,-0.00332 -0.073736,0.00221 -0.086578,0.013286 -0.014614,0.012068 -0.033768,0.012732 -0.051371,0.00111 -0.01539,-0.00997 -0.051703,-0.017935 -0.0806,-0.018046 z m 2.5567607,0 c -0.098755,0 -0.1473932,0.042736 -0.1473932,0.1293139 0,0.054028 0.016053,0.080711 0.088127,0.1468841 0.056462,0.051814 0.085582,0.093443 0.081268,0.1158622 -0.0099,0.05425 -0.04428,0.053918 -0.1094964,-8.969e-4 L 9.7983639,7.532604 v 0.046389 c 0,0.065764 0.015278,0.074178 0.1216624,0.067868 0.07639,-0.00443 0.1016347,-0.01539 0.1322817,-0.056574 0.05237,-0.070414 0.03178,-0.1357575 -0.07307,-0.2311818 -0.04683,-0.042625 -0.085248,-0.08835 -0.085248,-0.1016356 0,-0.041961 0.046168,-0.043067 0.091123,-0.00221 0.03254,0.029561 0.04871,0.033879 0.0651,0.017493 0.03775,-0.037753 -0.01794,-0.080821 -0.1045137,-0.080821 z m 2.0348785,0 -0.0055,0.2215496 c -0.0034,0.1218628 -0.0022,0.2255464 0.0034,0.2303957 0.0044,0.00443 0.03931,0.00664 0.0765,0.00332 l 0.06764,-0.00554 -0.0066,-0.1243096 c -0.0034,-0.068311 0.0022,-0.1477256 0.01361,-0.1763784 0.01727,-0.045282 0.02934,-0.051482 0.09222,-0.047829 0.06554,0.00332 0.07241,-1.882e-4 0.07241,-0.04351 0,-0.060893 -0.07251,-0.075618 -0.127454,-0.025796 -0.03609,0.032661 -0.0393,0.032771 -0.05668,0.00111 -0.01107,-0.019486 -0.0413,-0.033103 -0.07374,-0.033103 z m 0.568383,0 c -0.09599,0 -0.14199,0.024578 -0.178537,0.095214 -0.05636,0.1090532 -0.02303,0.2935469 0.062,0.3430692 0.01838,0.011071 0.06887,0.019707 0.112143,0.020039 0.05978,3.874e-4 0.09067,-0.011403 0.128605,-0.049378 v 0 c 0.08979,-0.08979 0.08968,-0.2452314 -3.87e-4,-0.3520814 -0.0383,-0.045614 -0.063,-0.056907 -0.123911,-0.056907 z m -3.8312116,5.314e-4 c -0.015057,1.883e-4 -0.030225,0.00554 -0.036978,0.016828 -0.00554,0.00997 -0.00554,0.031442 0.00111,0.048604 0.011071,0.028786 0.014836,0.028675 0.047386,-8.969e-4 0.019486,-0.017603 0.030778,-0.039525 0.025243,-0.048604 -0.00664,-0.011071 -0.0217,-0.016165 -0.036867,-0.016054 z m -3.5401883,1.953e-4 c -0.030667,0.00111 -0.064546,0.00775 -0.099643,0.020261 -0.097206,0.033879 -0.1058424,0.1663919 -0.00997,0.1478141 0.025575,-0.00443 0.03565,-0.023914 0.036093,-0.067757 3.763e-4,-0.033546 0.00554,-0.065875 0.011625,-0.071853 0.019375,-0.019375 0.071964,0.011403 0.083921,0.049047 0.01871,0.058789 -0.00554,0.1008607 -0.080157,0.1416695 -0.038639,0.021036 -0.087575,0.061668 -0.1086103,0.090232 -0.032107,0.043621 -0.034764,0.059896 -0.016275,0.1004178 0.024246,0.053254 0.069529,0.061114 0.147637,0.025575 0.03886,-0.017714 0.058346,-0.017714 0.086689,0 0.041075,0.025575 0.1070604,0.030335 0.1195157,0.00886 0.00443,-0.00775 0.00221,-0.093664 -0.00554,-0.1907379 -0.00996,-0.1307346 -0.022245,-0.1864681 -0.048263,-0.215154 -0.024579,-0.027236 -0.06676,-0.040078 -0.1178992,-0.037864 z m 3.3091506,8.967e-4 c -0.066871,3.875e-4 -0.066761,0.032661 -0.00886,0.1237782 0.032218,0.050817 0.058568,0.1144781 0.058568,0.141448 0,0.028343 0.016165,0.059121 0.038307,0.07285 0.021036,0.013175 0.038196,0.039636 0.038196,0.058789 0,0.019154 0.00554,0.040632 0.012732,0.047607 0.0186,0.0186 0.1593726,0.015611 0.1593726,-0.00332 0,-0.00886 -0.025686,-0.062553 -0.057017,-0.1195046 -0.031331,-0.056908 -0.057127,-0.1261042 -0.057348,-0.1538048 -1.882e-4,-0.033325 -0.012732,-0.053586 -0.036978,-0.059896 -0.02015,-0.00554 -0.039525,-0.029782 -0.043067,-0.054804 -0.00554,-0.035872 -0.019818,-0.0465 -0.070967,-0.051482 -0.012289,-0.00111 -0.02325,-0.00221 -0.032771,-0.00221 z m -1.2956408,3.875e-4 c -0.00664,-5.53e-5 -0.014172,3.764e-4 -0.021257,0.00111 l -0.051703,0.00664 8.969e-4,0.2151171 c 5.424e-4,0.11832 0.00109,0.2199554 0.00111,0.2258454 3.764e-4,0.00554 0.03255,0.00775 0.07141,0.00443 l 0.070635,-0.00554 -0.00554,-0.2103455 C 7.2532445,7.315285 7.2444957,7.2135168 7.236082,7.2048035 7.2294432,7.1981647 7.2111718,7.1937322 7.190247,7.1937322 Z M 5.9998953,7.194247 c -0.034543,-5.314e-4 -0.064878,0.00886 -0.08525,0.027679 -0.034543,0.031221 -0.038417,0.031221 -0.073846,-8.967e-4 -0.028122,-0.025464 -0.055468,-0.030889 -0.1099388,-0.022143 -0.078385,0.012621 -0.079603,0.012732 -0.1750277,0.00664 l -0.064214,-0.00443 -0.00221,0.2247049 -0.00221,0.2246718 h 0.069528 0.069528 l -0.00221,-0.1712302 c -0.00221,-0.1379717 0.00332,-0.1775741 0.029892,-0.2039129 0.027568,-0.027789 0.0372,-0.028786 0.063549,-0.00664 0.025353,0.021036 0.030114,0.057682 0.025575,0.1991411 l -0.00554,0.1733116 0.070303,0.00554 0.070303,0.00554 0.00554,-0.1855123 c 0.00443,-0.1533608 0.011403,-0.18921 0.039525,-0.2066918 0.055357,-0.034432 0.072739,0.019043 0.067757,0.2083415 l -0.00443,0.1720937 h 0.073846 0.073736 L 6.1296631,7.4683511 C 6.1241274,7.2558689 6.1026489,7.2028037 6.0162367,7.1945113 c -0.00554,-5.426e-4 -0.00997,-7.197e-4 -0.015057,-9.079e-4 z m 4.6728257,5.425e-4 c -0.0034,-1.11e-5 -0.0066,1.883e-4 -0.0099,5.314e-4 -0.04683,0.00554 -0.04706,0.00664 -0.04938,0.2304622 l -0.0022,0.2246718 h 0.06919 0.06919 l -0.0022,-0.1290704 c -8.97e-4,-0.070967 0.0044,-0.1530841 0.01262,-0.1824343 0.01284,-0.047718 0.02192,-0.052811 0.08558,-0.047829 0.06123,0.00443 0.07196,-3.764e-4 0.07728,-0.037532 0.0077,-0.058235 -0.04639,-0.076614 -0.113427,-0.038196 -0.04661,0.026682 -0.05591,0.027014 -0.07639,0.00221 -0.01129,-0.013507 -0.03687,-0.022918 -0.06045,-0.022918 z m 2.848181,0.00111 -0.156339,7.086e-4 v 0.3319093 0.3318982 h 0.07241 0.07241 l -0.01107,-0.090896 c -0.01361,-0.1124301 0.0055,-0.1461203 0.06842,-0.1227375 0.07074,0.026239 0.143896,-0.00886 0.180852,-0.0868 0.04484,-0.094439 0.03078,-0.2571662 -0.02757,-0.3192325 -0.03852,-0.041075 -0.05868,-0.045614 -0.199175,-0.04495 z m -0.971005,0.026239 c 0.03332,0.00221 0.04982,0.067757 0.04982,0.1985433 0,0.1818808 -0.05292,0.2696658 -0.104514,0.1733004 -0.01107,-0.020371 -0.01982,-0.1007497 -0.01982,-0.1787033 0,-0.1137806 0.0066,-0.1480466 0.03554,-0.1738429 0.01494,-0.013507 0.0279,-0.019929 0.03897,-0.019264 z m 1.023938,0.0279 c 0.01827,0.00108 0.03609,0.012732 0.04816,0.035429 0.03178,0.059343 0.02469,0.2612737 -0.0099,0.2962926 -0.04031,0.0403 -0.05791,0.037975 -0.09322,-0.012511 -0.0351,-0.050153 -0.0393,-0.2023741 -0.0077,-0.2721238 0.01484,-0.032439 0.0393,-0.048493 0.06278,-0.047164 z m 1.423992,0.059675 c -0.03078,5.425e-4 -0.05215,0.02015 -0.109275,0.083367 -0.09245,0.1021885 -0.19406,0.290159 -0.239596,0.4434978 -0.03488,0.1173568 -0.0144,0.1314396 0.07805,0.053696 0.03045,-0.025685 0.06544,-0.079493 0.0775,-0.1195046 0.02945,-0.097096 0.166635,-0.3038654 0.235445,-0.3547384 0.07185,-0.053143 0.06986,-0.084696 -0.0066,-0.1015246 -0.01406,-0.00332 -0.02547,-0.00443 -0.03566,-0.00443 z M 3.8357369,7.3277555 c 0.097539,-0.00332 0.1515121,0.1671779 0.07285,0.2458181 -0.04506,0.04506 -0.082261,0.048714 -0.1133821,0.011182 -0.013286,-0.015942 -0.020039,-0.07285 -0.016718,-0.1386249 0.00554,-0.098092 0.011071,-0.1122971 0.047607,-0.117534 0.00332,-5.424e-4 0.00664,-7.195e-4 0.00997,-8.967e-4 z m 17.0365591,0.02015 c -0.0089,-7.197e-4 -0.01871,8.968e-4 -0.0299,0.00332 -0.06321,0.015832 -0.06156,0.047496 0.0089,0.1580552 0.07506,0.1183642 0.196174,0.4328029 0.245541,0.6374576 0.04628,0.1917897 0.07938,0.4928984 0.07972,0.7238919 7.19e-4,0.6452291 0.245973,1.7013298 0.477178,2.0555028 0.171262,0.262337 0.487129,0.615116 1.158377,1.29366 0.706,0.713695 0.799709,0.818729 0.889996,0.997599 0.06764,0.133886 0.06975,0.188623 0.0099,0.257698 -0.08547,0.09943 -0.187804,0.06521 -0.691109,-0.230895 -0.463936,-0.272932 -0.887993,-0.469881 -0.955716,-0.443885 -0.01284,0.0044 -0.0289,0.04318 -0.03554,0.08503 -0.0066,0.04307 -0.02535,0.08104 -0.04251,0.08769 -0.01672,0.0066 -0.244434,0.01162 -0.506096,0.01162 h -0.475749 l -0.02104,-0.08127 c -0.07406,-0.286792 -0.05901,-0.272511 -0.234614,-0.223011 -0.114998,0.03244 -0.148279,0.0144 -0.182179,-0.09897 -0.08105,-0.271049 -0.09665,-0.28665 -0.312899,-0.312678 -0.138105,-0.01661 -0.162872,-0.04373 -0.132569,-0.144814 0.02624,-0.08747 0.04108,-0.09721 0.250147,-0.163214 0.161564,-0.05104 0.184847,-0.07241 0.165074,-0.151114 -0.01262,-0.05038 -0.203913,-0.267241 -0.264141,-0.29947 -0.04839,-0.02591 -0.08702,0.0066 -0.133798,0.112131 -0.01982,0.04473 -0.04506,0.08127 -0.05613,0.08127 -0.01107,0 -0.04716,-0.0186 -0.08038,-0.0413 -0.190804,-0.130454 -0.298851,-0.297145 -0.299193,-0.461644 -1.88e-4,-0.106286 0.02956,-0.172038 0.114146,-0.252439 0.05602,-0.05314 0.07074,-0.05735 0.202507,-0.05735 0.09764,0 0.1421,-0.0066 0.1421,-0.02292 -10e-6,-0.06964 -0.499408,-0.570199 -0.552595,-0.553913 -0.01683,0.0055 -0.08226,0.02912 -0.145356,0.05325 -0.145246,0.05558 -0.42906,0.06443 -0.478605,0.01495 -0.02801,-0.02801 -0.01971,-0.03166 0.09975,-0.04274 0.652815,-0.06089 1.066054,-0.4778636 1.064559,-1.0739803 -0.0012,-0.5552746 -0.257619,-0.897436 -0.78216,-1.0445083 -0.386679,-0.108389 -0.827686,0.013729 -1.102965,0.3055483 -0.212992,0.2257789 -0.294245,0.4533956 -0.277461,0.7772227 0.01605,0.3098988 0.118077,0.5479451 0.32241,0.7522786 0.142368,0.142367 0.30773,0.228148 0.537816,0.278999 0.03443,0.0077 0.05259,0.02392 0.05259,0.04739 0,0.0796 -0.104399,0.387742 -0.209139,0.617263 -0.248465,0.544524 -0.50314,0.837783 -0.727545,0.837783 -0.104514,0 -0.175914,-0.0341 -0.385152,-0.183962 -0.325975,-0.233484 -0.560378,-0.494902 -0.742215,-0.827764 l -0.06886,-0.126025 -0.145002,-0.01317 c -0.250623,-0.02281 -0.431176,-0.107614 -0.599084,-0.281435 -0.04162,-0.04307 -0.08979,-0.07827 -0.107171,-0.07827 -0.03411,0 -0.249583,0.241102 -0.481728,0.538956 -0.466061,0.597988 -0.721123,1.117922 -0.941001,1.918241 l -0.06311,0.229454 h -0.331998 -0.332009 l -0.03897,-0.07507 c -0.02148,-0.0413 -0.04883,-0.07839 -0.06089,-0.08237 -0.01206,-0.0044 -0.228005,0.109276 -0.479934,0.251731 -0.588279,0.332662 -0.764125,0.416938 -0.892288,0.427566 -0.08469,0.0066 -0.106396,0.0022 -0.139057,-0.03322 -0.0826,-0.08858 -0.06765,-0.27364 0.03697,-0.459961 0.134905,-0.240205 0.348185,-0.47503 0.854612,-0.940936 0.741152,-0.681853 0.996248,-0.977338 1.269612,-1.470691 0.167588,-0.302437 0.238522,-0.6629876 0.291101,-1.4797461 0.01694,-0.2629344 0.03775,-0.54262 0.04639,-0.6214926 0.01738,-0.1597934 0.0055,-0.1889887 -0.06266,-0.1577784 -0.05801,0.026461 -0.05956,0.036535 -0.108499,0.7505629 -0.06631,0.9664992 -0.110713,1.1667142 -0.34762,1.5688722 -0.233407,0.396156 -0.307241,0.47732 -1.443454,1.586297 -0.436656,0.426194 -0.610311,0.641854 -0.674137,0.837142 -0.01472,0.04495 -0.03598,0.07871 -0.04738,0.07506 -0.02779,-0.0089 -0.109496,-0.324779 -0.201511,-0.77833 -0.196893,-0.970982 -0.287568,-1.891027 -0.287623,-2.9185851 0,-0.4526976 -0.0044,-0.5416009 -0.02845,-0.561474 -0.04728,-0.039193 -0.08437,-0.00775 -0.149465,0.1284945 -0.03409,0.071189 -0.07041,0.1337645 -0.08071,0.1390234 -0.01162,0.00554 -0.02225,-0.120047 -0.02823,-0.3346217 l -0.0099,-0.3442096 -0.05447,0.1035173 c -0.07185,0.1365214 -0.136808,0.3994116 -0.165749,0.6709928 -0.01295,0.1209434 -0.02901,0.2260774 -0.03587,0.2336502 -0.0066,0.00775 -0.197248,-0.03554 -0.423171,-0.095879 l -0.410748,-0.1097174 0.0022,-0.066649 c 0.0012,-0.036646 0.0558,-0.1935722 0.1209,-0.3487267 0.0651,-0.1551435 0.115497,-0.2971561 0.111965,-0.3155347 -0.0044,-0.020925 -0.02392,-0.033436 -0.05292,-0.033436 -0.05115,0 -0.09045,0.059011 -0.3082395,0.463692 -0.063655,0.11832 -0.12597,0.2161136 -0.1384037,0.2173315 -0.044283,0.00443 -0.09931,-0.00554 -0.1153635,-0.021036 C 9.6899531,9.1945232 9.7920274,8.7765669 9.8772691,8.5507548 9.9489035,8.3610907 9.9599715,8.3083577 9.917123,8.361445 9.8687455,8.4214519 9.5870735,8.9630091 9.4337797,9.2906781 9.1397671,9.9192001 8.9212289,10.511973 8.802909,11.001893 8.6738165,11.536487 8.5792115,12.292718 8.5155066,13.29913 c -0.018157,0.286727 -0.028343,0.348306 -0.088681,0.535413 -0.1353146,0.419805 -0.2960824,0.705413 -0.6194113,1.100573 -0.3216904,0.393146 -0.5737528,0.634469 -1.0121688,0.968991 -0.2632143,0.200837 -0.8196514,0.589997 -0.8883384,0.621296 -0.051814,0.02358 -0.057128,0.02104 -0.1297456,-0.06089 C 5.6478582,16.318456 5.4023833,15.982661 5.3417121,15.868858 5.1511291,15.511407 4.9158399,14.092044 4.8623872,12.977332 4.8512051,12.744754 4.8362587,12.434002 4.8290623,12.286754 l -0.013064,-0.267685 h -0.047829 c -0.044618,0 -0.05126,0.01317 -0.099089,0.19789 -0.081043,0.312711 -0.086689,0.304209 -0.1038493,-0.155653 -0.00775,-0.196771 -0.020261,-0.357749 -0.028786,-0.357749 -0.0155,0 -0.025796,0.033 -0.085582,0.274138 -0.017825,0.07185 -0.044064,0.135183 -0.058346,0.140662 -0.031332,0.01206 -0.3481067,-0.02314 -0.3655773,-0.04052 -0.00664,-0.0066 0.00221,-0.0826 0.020482,-0.168474 0.02945,-0.140185 0.029782,-0.159106 0.00332,-0.185401 -0.046168,-0.04617 -0.084253,-0.0066 -0.1472828,0.152254 -0.031221,0.07861 -0.0651,0.153018 -0.075286,0.165396 -0.019375,0.02336 -0.145777,0.01373 -0.1757141,-0.01329 -0.00886,-0.0077 0.00664,-0.118885 0.034764,-0.246494 0.078496,-0.359034 0.052921,-0.356632 -0.083589,0.0077 -0.467877,1.248399 -0.5588618,1.667285 -0.6112959,2.814436 l -0.015057,0.328566 -0.1647422,0.245111 c -0.6353099,0.945144 -1.4238034,1.619348 -2.42348375,2.072223 -0.20857389,0.09444 -0.30460714,0.152077 -0.25351269,0.152077 0.0122891,0 0.13679808,-0.02944 0.2765966,-0.06554 C 1.0826445,17.163577 1.6060114,16.916563 2.040785,16.56777 c 0.2440466,-0.195786 0.5972241,-0.559017 0.75539,-0.776902 0.1176446,-0.162063 0.1552652,-0.196185 0.1552652,-0.140806 0,0.07307 -0.4175022,0.598088 -0.7161198,0.900492 -0.2686695,0.272057 -0.5116534,0.472604 -0.8136699,0.671557 -0.3791731,0.249805 -0.49144809,0.302438 -0.75101681,0.35216 -0.12383354,0.0237 -0.22974249,0.0506 -0.23536674,0.05968 -0.005539,0.0089 0.0349857,0.01661 0.0903423,0.01661 0.13262421,0 0.11341531,0.01627 -0.16693451,0.141272 -0.1788362,0.07982 -0.22910029,0.110492 -0.23390526,0.142776 -0.003319,0.02502 0.006639,0.04605 0.0260181,0.05348 0.0772783,0.02968 0.72842014,-0.141404 1.13213842,-0.297433 l 0.2478995,-0.09577 0.676606,-0.01927 c 0.3721427,-0.01107 0.6839132,-0.01196 0.6928257,-0.0034 0.00886,0.0089 0.013286,0.03609 0.00997,0.06045 -0.00664,0.04251 -0.022475,0.0465 -0.4366669,0.105068 -0.8253723,0.11688 -2.07105896,0.349922 -2.11720446,0.396068 -0.0142818,0.01417 -0.0203709,0.04029 -0.0135069,0.05791 0.0153897,0.04007 0.0633284,0.04041 0.65836036,0.0044 0.6225666,-0.03798 1.8395673,-0.0775 1.8820924,-0.06123 0.032661,0.01251 0.034654,0.03798 0.02779,0.370161 l -0.00775,0.356742 0.076503,0.03985 0.076503,0.03985 -0.00664,0.219724 c -0.00443,0.162062 3.874e-4,0.227705 0.019153,0.250224 0.01395,0.01683 0.1027424,0.05026 0.1974583,0.07428 0.7195851,0.183088 0.9873025,0.318347 1.3048742,0.659245 0.1065069,0.114358 0.1225272,0.124908 0.1592399,0.105289 0.04971,-0.02658 0.064435,0.04351 -0.1584206,-0.754637 -0.2872473,-1.028643 -0.3541405,-1.303424 -0.3244914,-1.332863 0.018711,-0.0186 0.1003068,-0.0238 0.3250339,-0.02082 0.3660757,0.0044 0.9256238,0.04085 0.9459066,0.06079 0.00775,0.0077 0.109164,0.314173 0.2245279,0.680305 0.1153306,0.366119 0.2193021,0.677247 0.231071,0.69143 0.017271,0.02082 0.1040712,0.02358 0.4543368,0.0145 0.4611343,-0.01207 0.6175288,0.0022 1.0190771,0.09112 0.3098219,0.06886 0.3162875,0.03653 0.054472,-0.272301 -0.1051782,-0.124055 -0.1912362,-0.234636 -0.1912362,-0.245708 0,-0.01107 0.012953,-0.02015 0.028675,-0.02015 0.015833,0 0.028675,-0.0099 0.028675,-0.02148 0,-0.03477 -0.4550121,-0.564963 -0.5667999,-0.660464 -0.1654507,-0.141349 -0.1498511,-0.15356 0.1556527,-0.12162 0.094661,0.0099 0.4507939,0.04007 0.7913942,0.06709 0.3406114,0.02702 0.6267294,0.0537 0.635819,0.05934 0.00886,0.0056 0.016607,0.330238 0.016828,0.72139 1.44e-4,0.391141 0.00664,0.720837 0.014393,0.732661 0.00775,0.01184 0.042072,0.02757 0.076171,0.03498 l 0.062111,0.01351 v 0.237515 c 0,0.212006 0.00443,0.2416 0.038307,0.275733 0.02336,0.02336 0.063771,0.0383 0.1038492,0.0383 0.149962,0 0.8079234,0.201986 1.1704999,0.359311 0.4069407,0.176589 0.9197337,0.52216 1.4190537,0.956302 0.160724,0.139743 0.217807,0.161897 0.228348,0.08857 v 0 c 0.0034,-0.02148 -0.08004,-0.266699 -0.184682,-0.54479 -0.262658,-0.69783 -0.471033,-1.285511 -0.69111,-1.949341 -0.212659,-0.641454 -0.259148,-0.798867 -0.241201,-0.816814 0.0066,-0.0066 0.169492,-0.0022 0.361215,0.01107 0.606657,0.0403 1.895876,0.138038 1.937416,0.146817 0.03244,0.0066 0.07142,0.09001 0.208021,0.443897 0.404681,1.048261 0.66601,1.691309 0.691287,1.701008 0.01506,0.0055 0.158276,-0.0034 0.318446,-0.02082 1.258994,-0.135094 1.932245,-0.07839 2.535969,0.213711 0.176854,0.08558 0.224926,0.09123 0.245674,0.02901 0.0034,-0.01129 -0.08824,-0.135259 -0.204411,-0.275567 -0.116183,-0.140308 -0.211242,-0.261683 -0.211242,-0.269766 0,-0.0077 0.0175,-0.01472 0.03886,-0.01472 0.03145,0 0.03532,-0.0066 0.02037,-0.03343 -0.0099,-0.01838 -0.282265,-0.351838 -0.604519,-0.740964 -0.322256,-0.389149 -0.590637,-0.718678 -0.596372,-0.732273 -0.0055,-0.01361 -0.0055,-0.02912 -5.32e-4,-0.03465 0.01207,-0.01206 0.492423,0.07008 0.807504,0.138115 0.625787,0.135082 1.110493,0.362212 1.389016,0.650876 0.21607,0.223942 0.293403,0.414525 0.279464,0.688718 -0.0044,0.09643 -0.0022,0.186654 0.0066,0.200427 0.02259,0.03653 3.007777,0.06886 3.050977,0.03299 0.03421,-0.02835 0.02635,-0.110493 -0.03399,-0.357706 -0.03697,-0.151467 -0.03731,-0.160458 -0.0056,-0.183829 0.03178,-0.02325 0.03123,-0.03111 -0.01107,-0.146707 -0.06654,-0.182999 -0.216965,-0.478805 -0.338054,-0.664593 -0.317151,-0.486567 -0.73814,-0.861045 -1.259127,-1.120038 -0.394419,-0.196063 -0.911231,-0.354052 -1.570411,-0.480077 -0.276707,-0.05292 -0.297112,-0.05292 -0.609535,-0.0012 -0.09466,0.01561 -0.45406,0.03931 -0.798701,0.05259 -1.160083,0.04462 -1.886101,-0.0331 -2.098129,-0.224638 -0.207555,-0.187506 -0.307486,-0.606269 -0.210533,-0.882125 0.02104,-0.0599 0.0382,-0.118386 0.0382,-0.130067 0,-0.01162 -0.111888,-0.10042 -0.248641,-0.197148 -0.157536,-0.111445 -0.265028,-0.202008 -0.293359,-0.247147 -0.170964,-0.272355 -0.636594,-1.214387 -0.845512,-1.710596 -0.08912,-0.21163 -0.295251,-0.76262 -0.295251,-0.789147 0,-0.0044 0.05038,-0.0034 0.112031,0.0022 0.185513,0.01937 0.310431,-0.03355 0.996702,-0.421764 0.215405,-0.121875 0.397286,-0.221594 0.404161,-0.221594 0.0066,0 0.02658,0.02148 0.04384,0.04782 l 0.03133,0.04783 h 1.888846 c 1.957544,0 1.934704,8.96e-4 1.934737,-0.07551 0,-0.05326 0.108611,-0.257886 0.164931,-0.310642 0.03022,-0.02834 0.09798,-0.07141 0.150581,-0.09565 0.09532,-0.04384 0.09865,-0.04406 0.946549,-0.04406 0.941057,0 0.978014,0.0044 1.140155,0.123347 0.07805,0.05746 0.166834,0.203702 0.188058,0.30981 0.0099,0.04994 0.01339,0.05093 0.20626,0.06321 0.107836,0.0066 0.561818,0.0099 1.008803,0.0066 l 0.812695,-0.0055 0.01827,-0.06211 c 0.01196,-0.04074 0.03033,-0.06212 0.05326,-0.06212 0.05048,0 0.412399,0.184361 0.776038,0.395293 0.534062,0.309778 0.633284,0.342073 0.768454,0.25007 0.210546,-0.143286 0.188436,-0.331522 -0.08149,-0.69318 -0.05491,-0.07362 -0.379683,-0.413749 -0.7216,-0.755855 C 22.013476,11.242001 21.76654,10.946428 21.637646,10.611485 21.432587,10.07873 21.34169,9.6062585 21.297958,8.8454219 21.261091,8.2038347 21.204515,7.9447531 21.01835,7.5642182 20.935979,7.395922 20.909407,7.3510386 20.870237,7.3481711 Z M 4.3866052,7.4314944 c 0.016386,-8.968e-4 0.030667,0.015057 0.034543,0.04805 0.00664,0.058567 -0.032882,0.099421 -0.072628,0.074843 -0.021036,-0.012954 -0.023029,-0.029229 -0.00886,-0.070635 0.011957,-0.033879 0.030226,-0.051482 0.046611,-0.052257 z m 0.7840207,0 c 0.016386,-8.968e-4 0.030667,0.015057 0.034432,0.04805 0.00664,0.058567 -0.032882,0.099421 -0.072628,0.074843 -0.021036,-0.012954 -0.023028,-0.029229 -0.00886,-0.070635 0.011957,-0.033879 0.030224,-0.051482 0.046611,-0.052257 z m 3.3392535,0.128096 c -0.00554,5.426e-4 -0.014725,0.00886 -0.03111,0.023472 -0.021036,0.019043 -0.038196,0.04185 -0.038196,0.050817 0,0.00886 0.01716,0.016164 0.038196,0.016164 0.028675,0 0.038307,-0.012732 0.038307,-0.050707 0,-0.0279 -3.765e-4,-0.040189 -0.00775,-0.039636 z m 8.2246056,0.067979 c -0.26269,-8.968e-4 -0.566202,0.1851469 -0.769307,0.4715306 -0.388373,0.5475799 -0.436312,1.3019509 -0.123988,1.950735 0.105621,0.219302 0.195787,0.333104 0.333293,0.420336 0.217453,0.137938 0.443188,0.18394 0.698915,0.142455 0.06831,-0.01107 0.158653,-0.03565 0.20079,-0.05459 0.186011,-0.0837 0.410384,-0.325986 0.55223,-0.5963267 0.139755,-0.2663336 0.221517,-0.5746054 0.103404,-0.389846 -0.07872,0.1230474 -0.159671,0.1892322 -0.231568,0.1892322 -0.186942,0 -0.358404,-0.2992044 -0.330039,-0.5759665 0.01162,-0.1130279 0.07761,-0.3303925 0.100419,-0.3303925 0.0055,0 0.04528,0.030335 0.08858,0.067314 0.09355,0.080046 0.238721,0.1280407 0.338884,0.1120315 0.0857,-0.013729 0.09455,-0.00221 0.109054,0.1376949 0.0077,0.077167 0.01661,0.099975 0.032,0.084585 0.0362,-0.036204 0.02635,-0.5211969 -0.01406,-0.694442 C 17.690793,7.9953012 17.264512,7.629425 16.734469,7.6276092 Z m 1.380393,1.302649 0.08602,0.065653 c 0.105954,0.080932 0.197802,0.112574 0.302161,0.1041823 0.07916,-0.00664 0.08004,-0.00554 0.09676,0.070082 0.05757,0.2620592 -0.101969,0.6023496 -0.282508,0.6023496 -0.04063,0 -0.08514,-0.017714 -0.121862,-0.048715 -0.07783,-0.065543 -0.155321,-0.2296207 -0.168441,-0.3567756 -0.01129,-0.1091628 0.01262,-0.2565679 0.0599,-0.3697286 z m -6.78455,0.459894 c 0.0089,0 0.01683,0.1010817 0.01694,0.2246606 3.88e-4,0.682219 0.08437,1.601167 0.221451,2.421623 0.03665,0.219679 0.06344,0.408999 0.05946,0.42069 -0.0044,0.01174 -0.03399,-0.09057 -0.06676,-0.227306 -0.149087,-0.622711 -0.270308,-1.435849 -0.320805,-2.152068 -0.01705,-0.2414001 0.04118,-0.6875996 0.08968,-0.6875996 z M 9.6442322,9.52608 c 0.0066,-3.765e-4 0.014063,0.00332 0.021696,0.011071 0.014838,0.014836 0.0089,0.043067 -0.019487,0.099421 -0.022147,0.04329 -0.045393,0.078717 -0.051812,0.078717 -0.0066,0 -0.00555,-0.036536 0.00115,-0.081264 0.011183,-0.070192 0.027791,-0.1068389 0.048158,-0.1078354 z m 0.2012219,0.056242 c 0.00995,-1.44e-4 0.011843,0.024025 0.00555,0.071743 -0.00775,0.058125 -0.0022,0.084585 0.021037,0.1046241 0.017267,0.014725 0.2208189,0.07595 0.4521999,0.1362337 0.587271,0.1528632 0.544967,0.1363332 0.544967,0.2126362 0,0.03532 -0.0077,0.06909 -0.01727,0.07495 -0.0099,0.0055 -0.247623,-0.0455 -0.529224,-0.114113 C 9.9802905,9.985034 9.8043878,9.9500593 9.7915667,9.962891 c -0.011068,0.011071 -0.043069,0.146297 -0.072074,0.301651 -0.049048,0.261884 -0.079048,0.498999 -0.1373731,1.085617 -0.022252,0.224218 -0.023917,0.229532 -0.070524,0.233361 -0.026346,0.0022 -0.067205,-0.0055 -0.090901,-0.01727 -0.055686,-0.02746 -0.055362,-0.04229 0.012618,-0.724501 L 9.4878986,10.295135 9.6478908,9.9443717 C 9.759137,9.7005019 9.8230853,9.5825695 9.8455379,9.5823037 Z m 0.1747739,0.049489 c 0.05303,-7.197e-4 0.188303,0.027236 0.439102,0.087907 0.363054,0.087907 0.419341,0.1063961 0.419341,0.1377616 0,0.019929 -0.0089,0.038418 -0.01915,0.041075 -0.01107,0.00221 -0.201599,-0.043953 -0.4246,-0.1036283 -0.223,-0.059675 -0.415886,-0.1188737 -0.42864,-0.1316723 -0.02015,-0.02015 -0.01794,-0.031 0.01395,-0.031443 z m -0.1268456,0.475716 c 0.013173,-0.0077 0.6046756,0.126823 0.8848816,0.201865 l 0.07174,0.01926 1.45e-4,0.40559 c 8.8e-5,0.244832 0.01539,0.583451 0.03875,0.854257 0.03709,0.430544 0.03775,0.50057 0.0044,0.495754 -0.0077,-0.0012 -0.276331,-0.09521 -0.595785,-0.208927 -0.3194655,-0.113693 -0.5890539,-0.214951 -0.5990844,-0.224983 -0.044503,-0.0445 0.1402853,-1.509196 0.1946345,-1.542776 z m -0.4843391,2.031977 c 0.0022,10e-5 0.0044,3.88e-4 0.0066,8.96e-4 0.015613,0.0034 0.3996659,0.247104 0.8534937,0.541469 l 0.825151,0.535192 0.01229,0.08004 c 0.0066,0.04396 0.01738,0.107945 0.02348,0.142168 0.0077,0.04528 0.0044,0.062 -0.01484,0.06156 -0.01428,-3.77e-4 -0.3561,-0.21494 -0.759542,-0.476999 -0.487009,-0.316341 -0.7536851,-0.478415 -0.7935096,-0.482289 -0.057132,-0.0055 -0.062441,-0.01339 -0.11202,-0.167112 -0.061446,-0.190494 -0.070409,-0.236652 -0.040964,-0.234979 z m -5.7306529,0.09986 c 0.030667,0 0.06045,0.0077 0.066096,0.01649 0.011514,0.01871 -0.1536932,0.499574 -0.1812609,0.527541 -0.011182,0.0113 -0.017825,-0.0066 -0.017825,-0.04783 4.42e-5,-0.05846 0.041518,-0.336526 0.067536,-0.453196 0.00775,-0.03256 0.02314,-0.04307 0.065543,-0.04307 z m 0.3250671,0.0382 c 0.094439,0 0.3564102,0.04583 0.3685778,0.06455 0.01716,0.02635 0.018821,0.112573 0.00332,0.153803 -0.012732,0.03322 -0.1010817,0.03654 -0.3005884,0.01107 -0.061225,-0.0077 -0.1198035,-0.0227 -0.1300667,-0.03299 -0.030557,-0.03055 0.019264,-0.196416 0.05901,-0.196416 z m -0.1979676,0.313752 c 0.00221,-1.43e-4 0.00554,3.77e-4 0.00775,0.0012 0.00775,0.0044 0.1296239,0.02281 0.2703412,0.03975 0.2421535,0.02912 0.3086594,0.04783 0.2782795,0.07827 -0.00775,0.0077 -0.1343736,-0.0022 -0.2823649,-0.02104 -0.1520101,-0.01937 -0.276209,-0.02712 -0.2854758,-0.01772 -0.0217,0.02203 -0.092335,0.440375 -0.1099389,0.651662 -0.015168,0.181416 -0.029007,0.199252 -0.1189732,0.153228 -0.026239,-0.01339 -0.050485,-0.03919 -0.054029,-0.05746 -0.00664,-0.03675 0.2357543,-0.77306 0.2675735,-0.8114 0.00775,-0.0099 0.019043,-0.01639 0.027347,-0.01683 z m 0.8931514,0.07484 c 0.00332,-3.88e-4 0.00664,1.44e-4 0.00775,0.0012 0.00554,0.0055 0.017825,0.142168 0.02635,0.302692 0.03111,0.588157 0.091228,1.136799 0.1908708,1.743169 0.030889,0.188225 0.052589,0.345914 0.04805,0.35041 -0.00443,0.0044 -0.022808,-0.04196 -0.040854,-0.103185 -0.048714,-0.16616 -0.1557413,-0.713341 -0.2121278,-1.084354 -0.034875,-0.229422 -0.0527,-0.438716 -0.059564,-0.699701 -0.00775,-0.273906 -0.016939,-0.383214 -0.036757,-0.413362 -0.024467,-0.03743 -0.022475,-0.04395 0.02314,-0.07374 0.020593,-0.01351 0.041186,-0.02237 0.0527,-0.02348 z m 14.3488347,0.0538 c -0.092,1.89e-4 -0.19634,7.21e-4 -0.314826,0.0012 l -0.8424,0.0055 -0.08181,0.05757 c -0.117103,0.08237 -0.174275,0.203526 -0.185225,0.392713 -0.0077,0.134352 -0.0034,0.162695 0.04085,0.252871 0.05459,0.111556 0.1268,0.174508 0.259923,0.226598 0.07883,0.03089 0.166203,0.03421 0.899993,0.03499 0.510933,5.42e-4 0.839511,-0.0066 0.884914,-0.01927 0.176744,-0.04905 0.262492,-0.204589 0.262293,-0.475605 -1.88e-4,-0.19644 -0.02436,-0.271271 -0.114213,-0.352403 -0.120655,-0.109052 -0.165218,-0.125848 -0.809507,-0.124309 z m -9.3256106,0.05469 c 0.023801,0 1.3709926,0.869481 1.4211906,0.917277 0.02215,0.02104 0.05149,0.111444 0.08004,0.246216 0.06654,0.314395 0.321126,1.197427 0.679872,2.358405 0.08348,0.270055 0.151723,0.500262 0.151723,0.511532 0,0.04019 -0.03786,0.01871 -0.2043,-0.115673 C 11.619929,16.506259 11.349743,16.238841 11.2003,16.049043 10.776368,15.510626 10.244642,14.401693 9.8411337,13.214463 9.7076025,12.821561 9.6948704,12.774652 9.7218728,12.774652 Z m -5.7649742,0.03166 c 0.034986,7.09e-4 0.087907,0.0066 0.168108,0.01683 0.1137697,0.01506 0.2138329,0.03167 0.22238,0.03697 0.00886,0.0055 0.02159,0.119471 0.028897,0.253723 0.00775,0.134263 0.025907,0.342317 0.041297,0.462364 0.01539,0.120047 0.021147,0.224926 0.012843,0.233041 -0.00775,0.0077 -0.1441938,-0.03852 -0.3020497,-0.103519 -0.157867,-0.0651 -0.2987837,-0.125937 -0.3131543,-0.135259 -0.02015,-0.01307 -0.02336,-0.05004 -0.013839,-0.162539 0.020593,-0.245 0.072296,-0.564996 0.095214,-0.589164 0.00886,-0.0089 0.025464,-0.01307 0.060339,-0.0124 z m 18.0082398,0.41412 c -0.15439,-10e-4 -0.500969,0.0022 -0.895055,0.0077 l -0.955362,0.01484 -0.0237,0.119948 c -0.03111,0.15738 -0.08182,0.252992 -0.17721,0.334689 -0.134938,0.115496 -0.167244,0.11904 -1.08503,0.11904 -0.53891,0 -0.826877,0.0066 -0.826578,0.01915 3.76e-4,0.01107 0.143563,0.122394 0.318512,0.248607 0.445026,0.321049 0.58736,0.438771 0.778397,0.64368 0.203659,0.218439 0.371313,0.450672 0.54086,0.749202 l 0.128594,0.226421 0.17309,-0.01605 c 0.29998,-0.02791 0.820756,-0.01329 1.004939,0.02811 0.08934,0.02015 0.173224,0.03775 0.186298,0.03919 0.01307,0.0012 0.07229,-0.063 0.131706,-0.143308 0.161099,-0.217841 0.353188,-0.527596 0.462828,-0.7463 0.153128,-0.305449 0.238667,-0.64068 0.318591,-1.248244 0.03566,-0.270619 0.03675,-0.381798 0.0044,-0.39433 -0.0034,-0.0012 -0.03355,-0.0022 -0.08492,-0.0022 z m -4.585815,0.01462 c -0.06698,-0.0012 -0.149862,0.01107 -0.154656,0.02724 -0.0055,0.01893 0.253624,0.219899 0.283505,0.219899 0.0089,0 0.0155,-0.0077 0.0155,-0.01772 0,-0.0099 -0.0099,-0.06156 -0.02247,-0.11522 -0.01705,-0.07362 -0.03266,-0.100085 -0.06367,-0.107836 -0.01528,-0.0034 -0.03576,-0.0055 -0.05813,-0.0066 z m -2.671261,0.0034 c -0.585444,8.96e-4 -0.995307,0.0055 -1.006257,0.01262 -0.07274,0.04672 -0.07772,0.923874 -0.0066,1.187828 0.04329,0.160834 0.224362,0.522801 0.379141,0.757792 0.108277,0.16441 0.280393,0.381508 0.452232,0.570552 l 0.10374,0.114113 0.198997,-0.06188 c 0.259679,-0.08082 0.41821,-0.113062 0.686636,-0.139877 0.607532,-0.06067 1.266102,0.06887 1.606271,0.315967 0.05934,0.04307 0.08326,0.04816 0.210346,0.0444 l 0.143418,-0.0044 -0.0099,-0.124265 c -0.0055,-0.06842 -0.0099,-0.27487 -0.0089,-0.458931 3.77e-4,-0.449355 0.01971,-0.515961 0.201543,-0.692173 0.10463,-0.1013 0.179003,-0.151313 0.357175,-0.239817 0.123789,-0.06145 0.26248,-0.126148 0.308205,-0.143662 0.05038,-0.01927 0.07994,-0.04162 0.07517,-0.05658 -0.0044,-0.01361 -0.330048,-0.261329 -0.723714,-0.550548 l -0.715777,-0.52589 -1.615825,-0.0044 c -0.225889,-7.2e-4 -0.44052,-7.2e-4 -0.635664,-5.31e-4 z m -5.3512698,0.466226 c 0.012073,0.0022 0.044063,0.06544 0.073959,0.146531 0.054472,0.147969 0.058681,0.179202 0.069969,0.520742 0.022922,0.690401 0.1016346,1.464668 0.2194463,2.160793 0.03022,0.178803 0.052147,0.328179 0.048608,0.331942 -0.00335,0.0034 -0.019707,-0.0393 -0.035979,-0.09565 -0.1465513,-0.508166 -0.3031121,-1.552209 -0.353698,-2.358871 -0.040849,-0.650931 -0.042294,-0.69411 -0.024471,-0.705181 5.424e-4,-3.77e-4 0.00115,-5.32e-4 0.0022,-3.77e-4 z m -5.7441479,0.258296 c 0.00111,1.44e-4 0.00332,5.43e-4 0.00443,0.0012 0.2539445,0.118808 0.4127416,0.213058 0.5800413,0.344353 0.3457707,0.271338 0.3418846,0.267364 0.3720652,0.380757 0.048272,0.181283 0.031553,0.191635 -0.1154966,0.07142 -0.274017,-0.223996 -0.6270837,-0.417337 -0.6953721,-0.38079 -0.047275,0.02525 -0.044285,0.03056 -0.1053996,-0.183862 -0.04805,-0.168473 -0.059786,-0.235345 -0.040189,-0.233252 z m 14.9413317,0.475853 c -0.06145,0 -0.445867,0.161321 -0.593748,0.249184 -0.17743,0.1054 -0.281556,0.20089 -0.324492,0.29761 -0.04595,0.103405 -0.08026,0.421898 -0.06367,0.590393 0.0077,0.07396 0.01705,0.140895 0.02181,0.148777 0.0044,0.0077 0.459762,0.01428 1.011306,0.01428 0.935499,0 1.00278,-0.0022 1.00278,-0.03288 0,-0.0476 -0.212415,-0.410637 -0.342205,-0.584802 -0.235888,-0.316541 -0.61764,-0.682629 -0.711802,-0.682629 z M 3.9305413,14.575089 c 0.049268,0.0044 0.1955983,0.0961 0.3987584,0.250822 0.1209549,0.09212 0.2441242,0.187572 0.2737069,0.212138 0.049489,0.04108 0.067425,0.100305 0.2243064,0.737356 0.093775,0.380978 0.1972258,0.782525 0.2298532,0.892288 0.032661,0.109828 0.056242,0.208917 0.052478,0.220342 -0.00332,0.0114 -0.064214,-0.03808 -0.1341853,-0.109938 C 4.6307073,16.423934 4.3919416,16.02523 4.177378,15.445344 4.0488723,15.098046 3.8974046,14.596645 3.9155175,14.578532 c 0.00332,-0.0034 0.00775,-0.0044 0.015057,-0.0034 z m 5.7275413,0.02513 c 0.00115,-5.43e-4 0.00335,1.43e-4 0.00555,0.0022 0.00995,0.0099 0.06222,0.125727 0.1159279,0.257167 0.1361783,0.332982 0.4087115,0.882013 0.5797205,1.167854 0.208153,0.347952 0.499098,0.730724 0.858365,1.129315 0.08181,0.09079 0.148789,0.170378 0.148789,0.176877 0,0.01506 -0.208985,0.01118 -0.837573,-0.0155 -0.379959,-0.01617 -0.506804,-0.02768 -0.518696,-0.04683 C 9.9930035,17.243516 9.8950463,16.785948 9.8377515,16.465875 9.7218571,15.81842 9.6078873,14.61745 9.6582187,14.600367 Z m -1.2164583,0.402655 -0.00554,0.221694 -0.00554,0.221705 -0.2165786,0.227671 c -0.5452366,0.573256 -1.0631785,1.007475 -1.5451714,1.295421 -0.1358902,0.08115 -0.1483123,0.08282 -0.2326764,0.03145 -0.034654,-0.02114 -0.058346,-0.04605 -0.052589,-0.05535 0.00554,-0.0089 0.1417249,-0.11016 0.3021272,-0.224163 0.7417942,-0.527009 1.1730692,-0.934514 1.5731229,-1.486522 0.052478,-0.07229 0.114899,-0.154103 0.1388463,-0.181671 z m -0.249826,0.09788 c -3.875e-4,0.02513 -0.2180621,0.304208 -0.3979059,0.510036 -0.2240074,0.256369 -0.558142,0.553404 -0.9309047,0.827587 -0.2484973,0.182778 -0.6064796,0.428894 -0.6238618,0.428894 -0.00886,0 -0.044175,-0.02513 -0.078607,-0.0558 -0.034322,-0.03067 -0.058125,-0.05946 -0.052921,-0.06377 0.00554,-0.0044 0.1084997,-0.06665 0.2294325,-0.138271 0.5747822,-0.340382 0.9281367,-0.616148 1.4674353,-1.145305 0.2130911,-0.209083 0.3873437,-0.372585 0.387233,-0.36333 z m -4.6185308,0.186051 c 0.00775,-0.0012 0.016274,0.0077 0.022032,0.02358 0.00664,0.02015 0.033214,0.08757 0.058014,0.149896 0.029781,0.07495 0.04495,0.15253 0.04506,0.229465 1.882e-4,0.230263 0.080821,1.012623 0.1444927,1.402192 0.00775,0.04838 0.00554,0.08127 -0.00554,0.08127 -0.00997,0 -0.041075,-0.10108 -0.068863,-0.224705 -0.027789,-0.123568 -0.06355,-0.297799 -0.079382,-0.38719 -0.06665,-0.374954 -0.1512796,-1.24149 -0.1239775,-1.270043 0.00221,-0.0022 0.00554,-0.0044 0.00775,-0.0044 z m 4.8347773,0.394894 c 0.014725,0 -8.968e-4,1.494982 -0.016165,1.544095 -0.00775,0.02557 -0.1204347,0.02613 -1.0698951,0.0055 -0.4522,-0.0099 -0.4825356,-0.01273 -0.5607549,-0.05447 -0.099753,-0.05326 -0.094329,-0.06355 0.092225,-0.174419 0.3333158,-0.197964 0.7402227,-0.532619 1.2046898,-0.990709 0.1840286,-0.181504 0.341497,-0.329994 0.3499335,-0.329994 z m 11.9552892,0.110603 c -0.536067,0.0022 -1.017562,0.119362 -1.359778,0.330504 -0.235112,0.145079 -0.479457,0.388738 -0.563976,0.562437 -0.06012,0.123535 -0.06499,0.147361 -0.06499,0.317018 0,0.177597 0.0022,0.188702 0.08204,0.348894 0.0692,0.139532 0.09522,0.173223 0.166536,0.215007 0.09367,0.05491 0.34576,0.112141 0.611938,0.139011 0.245918,0.0248 1.34296,0.02624 1.744288,0.0022 0.445369,-0.02668 0.657662,-0.06953 0.865915,-0.174773 0.134086,-0.06776 0.173444,-0.09842 0.224849,-0.175371 0.233207,-0.348959 0.10551,-0.780721 -0.342494,-1.157802 -0.33616,-0.282962 -0.760881,-0.409708 -1.364317,-0.407106 z m -4.551096,2e-4 c -0.650842,0.0022 -1.15272,0.154645 -1.55263,0.471054 -0.183364,0.145091 -0.294565,0.278059 -0.376848,0.450662 -0.05215,0.109496 -0.05924,0.143695 -0.05857,0.286826 5.43e-4,0.133299 0.0099,0.185402 0.0538,0.289594 0.07994,0.191358 0.160934,0.275268 0.310354,0.321414 0.144581,0.04462 0.298407,0.07285 0.524285,0.0961 0.218207,0.02247 1.759179,0.0089 1.992862,-0.01804 0.343834,-0.03908 0.609059,-0.127143 0.746478,-0.247789 0.03852,-0.03387 0.0941,-0.110492 0.123446,-0.170189 0.04706,-0.09587 0.05336,-0.1301 0.05336,-0.291277 0,-0.173854 -0.0034,-0.189996 -0.07495,-0.334655 -0.05978,-0.121321 -0.111921,-0.188933 -0.258173,-0.335054 -0.211862,-0.211673 -0.373793,-0.315103 -0.623851,-0.398503 -0.261784,-0.08735 -0.506284,-0.12152 -0.85965,-0.120225 z m -5.341316,0.147061 c 0.0044,-0.0044 0.10684,0.113914 0.226963,0.263544 0.378266,0.471043 0.659635,0.740953 1.041288,0.998883 0.105178,0.07108 0.194103,0.136698 0.197612,0.14581 0.0034,0.0089 -0.06864,0.01661 -0.160246,0.01661 h -0.16657 l -0.171728,-0.167323 c -0.196838,-0.191778 -0.404394,-0.43391 -0.645263,-0.752854 -0.168241,-0.222757 -0.337965,-0.488713 -0.322056,-0.504624 z m -7.5331746,0.031 c 0.016608,0.0022 0.017714,0.03421 0.00997,0.150117 -0.013507,0.197746 -0.03731,0.234259 -0.3677253,0.565693 -0.3848527,0.385982 -0.8258816,0.692859 -1.0423384,0.725254 -0.047275,0.0066 -0.1010817,0.01716 -0.1195046,0.02237 -0.018378,0.0055 -0.033436,8.98e-4 -0.033436,-0.0099 0,-0.0099 0.083921,-0.07694 0.1864422,-0.147748 0.1025215,-0.07086 0.2509774,-0.180597 0.3298612,-0.243914 0.2048317,-0.164444 0.6514407,-0.618714 0.8396764,-0.85407 0.08835,-0.110492 0.1734335,-0.20378 0.1891659,-0.207489 0.00332,-7.19e-4 0.00554,-0.001 0.00775,-7.19e-4 z m 0.9382894,0.227318 c 0.00664,0 0.071078,0.122615 0.144061,0.272489 0.072961,0.149862 0.1982333,0.370272 0.2783126,0.489777 0.080046,0.119504 0.1456111,0.220585 0.1456111,0.22466 0,0.0044 -0.0992,0.0077 -0.2203761,0.0077 -0.2109655,0 -0.2210736,-0.0022 -0.2366511,-0.04307 C 3.9486873,17.048242 3.849543,16.198128 3.8760368,16.198128 Z m -0.9570112,0.344286 c 0.00775,0 0.014393,0.145114 0.014393,0.322622 0,0.235709 -0.00664,0.327668 -0.023914,0.340998 -0.013175,0.0099 -0.1831098,0.03753 -0.3776784,0.06101 -0.1945687,0.02358 -0.3774238,0.0475 -0.4063533,0.05326 -0.03111,0.0066 -0.052589,0.0022 -0.052589,-0.0099 0,-0.0113 0.070967,-0.07429 0.1577673,-0.139987 0.0868,-0.06576 0.2739284,-0.233839 0.415908,-0.373627 0.1419795,-0.139798 0.2645952,-0.254221 0.2724891,-0.254265 z m 1.3450635,0.0982 c 0.00997,0.0012 0.060561,0.05038 0.1166151,0.113637 0.059786,0.06754 0.1630151,0.174374 0.2294213,0.237481 0.1251399,0.11894 0.1418356,0.150349 0.090453,0.170056 -0.070746,0.02712 -0.1008607,0.0066 -0.2045218,-0.137118 C 4.3645949,16.841822 4.2498953,16.653354 4.26255,16.640688 c 3.874e-4,-3.76e-4 8.967e-4,-3.76e-4 0.00111,-3.76e-4 z m 1.5159726,0.284192 c 0.020261,0 0.078718,0.02813 0.1296682,0.06244 0.051039,0.03432 0.1508144,0.09234 0.221771,0.129059 0.070967,0.03665 0.129026,0.07318 0.1290703,0.08105 3.32e-5,0.0077 -0.090121,0.0144 -0.2002593,0.0144 -0.1872394,0 -0.2020751,-0.0034 -0.2265982,-0.04307 -0.1169029,-0.191624 -0.1283949,-0.24377 -0.053696,-0.24377 z m -1.5098169,0.651164 c 0.052478,5.42e-4 0.1180321,0.0022 0.1988644,0.0055 0.4619096,0.01738 0.4612453,0.05093 -0.00109,0.05093 -0.2250925,0 -0.3706039,-0.0077 -0.3779221,-0.01927 -0.017271,-0.0279 0.022586,-0.03864 0.1800651,-0.03709 z m 0.8267562,0.03864 c 0.021479,-5.32e-4 0.052257,0.0022 0.098203,0.0055 0.074289,0.0066 0.1451127,0.02082 0.1572358,0.03089 0.026793,0.02225 0.1342518,0.378719 0.1187961,0.394175 -0.00554,0.0055 -0.1987648,5.42e-4 -0.4282526,-0.01229 -0.5453768,-0.03045 -0.7919034,-0.0217 -0.900381,0.03211 -0.044839,0.02225 -0.085028,0.03476 -0.089346,0.02779 -0.00664,-0.0114 -0.087243,-0.31488 -0.087243,-0.330259 -1.11e-5,-0.0034 0.1928303,-0.0034 0.428496,-3.76e-4 0.4068294,0.0055 0.4334561,0.0044 0.526644,-0.03609 0.054029,-0.02325 0.1072818,-0.05934 0.1185414,-0.08026 0.011514,-0.02159 0.02159,-0.03067 0.05735,-0.03166 z m 1.4476843,0.15584 c 0.074732,0.001 0.3275359,0.01827 0.6103214,0.04174 0.323196,0.0268 0.7166844,0.05779 0.8744407,0.06886 0.4158415,0.02923 0.3751984,0.0034 0.3687549,0.234659 l -0.00554,0.195454 -0.1147107,0.0022 c -0.063107,0.0012 -0.1921883,-0.0044 -0.2868376,-0.01262 -0.094661,-0.0077 -0.4560639,-0.0383 -0.8031409,-0.06677 l -0.6310435,-0.05168 -0.082039,-0.08669 C 6.372813,17.987635 6.3436067,17.937659 6.3826665,17.937659 c 0.01539,0 0.1346392,0.02591 0.2651046,0.05769 0.3159994,0.07684 0.5114759,0.113249 0.5114759,0.09522 0,-0.0077 -0.070967,-0.04307 -0.1577452,-0.07772 -0.0868,-0.03465 -0.2394963,-0.101635 -0.3394155,-0.148933 -0.1371191,-0.06488 -0.1710308,-0.08779 -0.1382595,-0.09345 0.00332,-5.31e-4 0.00997,-7.19e-4 0.020704,-5.31e-4 z m -3.6282393,0.05303 -0.00554,0.08127 -0.00554,0.08127 -0.191203,0.01206 c -0.4076265,0.02569 -1.1282302,0.0383 -1.1090767,0.01949 v 0 c 0.031221,-0.03067 1.0622447,-0.193162 1.2296996,-0.193772 z m 7.215094,0.215106 c 0.07329,8.97e-4 0.238223,0.0099 0.425927,0.0227 0.822416,0.05801 1.926688,0.144448 1.969025,0.154202 0.03188,0.0077 0.05735,0.05048 0.11005,0.186432 0.03765,0.09732 0.06842,0.191944 0.06842,0.210356 0,0.0372 0.0044,0.03697 -0.258207,0.01174 -0.320627,-0.03089 -2.001509,-0.150327 -2.11541,-0.150327 -0.130189,0 -0.118719,0.0145 -0.200194,-0.254089 -0.02801,-0.09245 -0.04595,-0.173045 -0.03985,-0.179168 0.0012,-0.0012 0.01583,-0.0022 0.0403,-0.0022 z m 5.19049,0.494858 c 0.02735,-3.76e-4 0.09998,0.01428 0.292672,0.05303 1.216835,0.244811 2.097077,0.780123 2.407076,1.463815 l 0.05392,0.119051 0.53187,0.01262 c 0.292528,0.0066 0.785737,0.01339 1.09599,0.0144 0.310253,9.08e-4 0.607133,0.0077 0.659722,0.0144 l 0.09555,0.01262 0.03377,0.105178 c 0.0186,0.05779 0.03908,0.150339 0.04561,0.205552 l 0.01184,0.10042 -0.839212,-0.0044 c -0.461578,-0.0022 -1.088783,-0.0089 -1.393778,-0.0144 l -0.554566,-0.0099 -0.01184,-0.152973 c -0.01406,-0.181958 -0.04185,-0.29069 -0.107504,-0.42037 -0.18436,-0.364448 -0.57962,-0.647543 -1.186211,-0.849563 -0.27416,-0.09134 -0.565172,-0.157302 -1.061625,-0.240737 -0.208163,-0.03498 -0.391783,-0.07462 -0.407991,-0.08802 -0.04528,-0.03753 -0.146076,-0.190517 -0.13372,-0.202861 0.0055,-0.0055 0.09079,0.0114 0.188302,0.03864 0.400994,0.112286 1.072751,0.261783 1.176335,0.261783 0.0826,0 0.03111,-0.02746 -0.24367,-0.129989 -0.483477,-0.180453 -0.669276,-0.256414 -0.669276,-0.273563 0,-0.0089 1.43e-4,-0.0145 0.01649,-0.01462 z m -12.1305153,0.446931 0.061779,0.0044 c 0.033989,0.0022 0.1819694,0.04418 0.3288204,0.09234 0.2121278,0.06953 0.3016068,0.110493 0.4353714,0.198976 0.1925093,0.127376 0.4630831,0.390476 0.4965741,0.482834 0.026128,0.07219 0.032107,0.149298 0.011182,0.14664 -0.00775,-0.001 -0.074621,-0.04883 -0.1481796,-0.106175 -0.1937386,-0.150965 -0.3927027,-0.239769 -0.7996649,-0.35696 -0.1979122,-0.05702 -0.3682456,-0.112009 -0.3785088,-0.122272 -0.00997,-0.0099 -0.016053,-0.09101 -0.013064,-0.179423 z m 3.076718,0.04251 c 0.2817447,0.0012 0.6619804,0.02358 0.7631508,0.05513 0.044617,0.01395 0.3984816,0.427378 0.3847641,0.449576 -0.00554,0.0089 -0.016386,0.01583 -0.023582,0.0145 -0.00775,-0.0012 -0.094993,-0.01949 -0.1948787,-0.0403 -0.1500062,-0.03123 -0.2649383,-0.0383 -0.6594672,-0.04063 l -0.477797,-0.0022 -0.064214,-0.198045 c -0.037421,-0.11553 -0.057128,-0.20512 -0.047164,-0.21504 0.016608,-0.01661 0.1501725,-0.02325 0.3192326,-0.02237 z m 2.4567527,0.980494 c 0.056132,0 0.4532851,0.124653 0.7308008,0.229388 0.4281856,0.161598 0.8407838,0.40229 1.2893738,0.752169 0.357186,0.278589 0.442403,0.366784 0.496508,0.513901 0.02591,0.07052 0.04096,0.13207 0.03332,0.136764 -0.0077,0.0044 -0.06123,-0.02978 -0.119051,-0.07662 -0.408916,-0.330968 -0.770121,-0.567774 -1.135488,-0.744462 -0.262757,-0.127066 -0.8311182,-0.325366 -1.0922371,-0.381078 -0.255262,-0.05447 -0.2390534,-0.03764 -0.2390534,-0.248031 0,-0.165219 0.00332,-0.182037 0.035872,-0.182037 z m 6.1191806,0.261672 c 0.295209,0.0012 0.544015,0.02203 0.738573,0.06189 0.374502,0.07684 0.366518,0.07229 0.566689,0.317118 0.0982,0.120158 0.181637,0.227351 0.185258,0.238223 0.0089,0.02813 -0.02503,0.02237 -0.187837,-0.03122 -0.407959,-0.134451 -0.795557,-0.172581 -1.4403,-0.141703 -0.254287,0.01218 -0.590338,0.03532 -0.746765,0.05159 -0.156427,0.01617 -0.291222,0.02225 -0.299547,0.01361 -0.02048,-0.02137 -0.152254,-0.351805 -0.152254,-0.381731 0,-0.03941 0.02458,-0.04517 0.319298,-0.07396 0.380092,-0.0372 0.721678,-0.05513 1.016885,-0.0538 z"
     id="path5239"
     inkscape:connector-curvature="0"
     inkscape:export-xdpi="100"
     inkscape:export-ydpi="100" />
</svg>
